G75*
%MOIN*%
%OFA0B0*%
%FSLAX25Y25*%
%IPPOS*%
%LPD*%
%AMOC8*
5,1,8,0,0,1.08239X$1,22.5*
%
%ADD10C,0.01000*%
%ADD11C,0.00600*%
%ADD12C,0.00500*%
%ADD13C,0.00800*%
%ADD14C,0.00400*%
%ADD15C,0.02200*%
%ADD16C,0.00100*%
%ADD17C,0.00000*%
%ADD18R,0.03000X0.01800*%
%ADD19R,0.01800X0.03000*%
D10*
X0018250Y0023250D02*
X0018250Y0100250D01*
X0118250Y0100250D02*
X0118250Y0023250D01*
D11*
X0111750Y0027250D02*
X0106750Y0027250D01*
X0103250Y0030750D01*
X0103250Y0035750D01*
X0106750Y0039250D01*
X0111750Y0039250D01*
X0115250Y0035750D01*
X0115250Y0030750D01*
X0111750Y0027250D01*
X0121250Y0030750D02*
X0121250Y0035750D01*
X0124750Y0039250D01*
X0129750Y0039250D01*
X0133250Y0035750D01*
X0133250Y0030750D01*
X0129750Y0027250D01*
X0124750Y0027250D01*
X0121250Y0030750D01*
X0124750Y0046250D02*
X0129750Y0046250D01*
X0133250Y0049750D01*
X0133250Y0054750D01*
X0129750Y0058250D01*
X0124750Y0058250D01*
X0121250Y0054750D01*
X0121250Y0049750D01*
X0124750Y0046250D01*
X0115250Y0049750D02*
X0115250Y0054750D01*
X0111750Y0058250D01*
X0106750Y0058250D01*
X0103250Y0054750D01*
X0103250Y0049750D01*
X0106750Y0046250D01*
X0111750Y0046250D01*
X0115250Y0049750D01*
X0111750Y0065250D02*
X0106750Y0065250D01*
X0103250Y0068750D01*
X0103250Y0073750D01*
X0106750Y0077250D01*
X0111750Y0077250D01*
X0115250Y0073750D01*
X0115250Y0068750D01*
X0111750Y0065250D01*
X0121250Y0068750D02*
X0124750Y0065250D01*
X0129750Y0065250D01*
X0133250Y0068750D01*
X0133250Y0073750D01*
X0129750Y0077250D01*
X0124750Y0077250D01*
X0121250Y0073750D01*
X0121250Y0068750D01*
X0124750Y0084250D02*
X0129750Y0084250D01*
X0133250Y0087750D01*
X0133250Y0092750D01*
X0129750Y0096250D01*
X0124750Y0096250D01*
X0121250Y0092750D01*
X0121250Y0087750D01*
X0124750Y0084250D01*
X0115250Y0087750D02*
X0115250Y0092750D01*
X0111750Y0096250D01*
X0106750Y0096250D01*
X0103250Y0092750D01*
X0103250Y0087750D01*
X0106750Y0084250D01*
X0111750Y0084250D01*
X0115250Y0087750D01*
X0086250Y0103750D02*
X0083750Y0101250D01*
X0078750Y0101250D01*
X0076250Y0103750D01*
X0073750Y0101250D01*
X0068750Y0101250D01*
X0066250Y0103750D01*
X0063750Y0101250D01*
X0058750Y0101250D01*
X0056250Y0103750D01*
X0053750Y0101250D01*
X0048750Y0101250D01*
X0046250Y0103750D01*
X0046250Y0118750D01*
X0048750Y0121250D01*
X0053750Y0121250D01*
X0056250Y0118750D01*
X0058750Y0121250D01*
X0063750Y0121250D01*
X0066250Y0118750D01*
X0068750Y0121250D01*
X0073750Y0121250D01*
X0076250Y0118750D01*
X0078750Y0121250D01*
X0083750Y0121250D01*
X0086250Y0118750D01*
X0086250Y0103750D01*
X0045234Y0111550D02*
X0042966Y0111550D01*
X0042966Y0114953D01*
X0045234Y0114953D01*
X0044100Y0113251D02*
X0042966Y0113251D01*
X0041551Y0112117D02*
X0041551Y0114953D01*
X0040301Y0116550D02*
X0040868Y0117117D01*
X0040868Y0117684D01*
X0040301Y0118251D01*
X0038599Y0118251D01*
X0038599Y0117117D01*
X0039167Y0116550D01*
X0040301Y0116550D01*
X0039283Y0114953D02*
X0039283Y0112117D01*
X0039850Y0111550D01*
X0040984Y0111550D01*
X0041551Y0112117D01*
X0040640Y0109953D02*
X0038372Y0109953D01*
X0038372Y0106550D01*
X0040640Y0106550D01*
X0039185Y0104953D02*
X0039185Y0102684D01*
X0038051Y0101550D01*
X0036916Y0102684D01*
X0036916Y0104953D01*
X0035502Y0104386D02*
X0034935Y0104953D01*
X0033800Y0104953D01*
X0033233Y0104386D01*
X0033233Y0102117D01*
X0033800Y0101550D01*
X0034935Y0101550D01*
X0035502Y0102117D01*
X0035502Y0104386D01*
X0034689Y0106550D02*
X0036957Y0106550D01*
X0034689Y0106550D02*
X0034689Y0109953D01*
X0036957Y0109953D01*
X0037301Y0111550D02*
X0035599Y0111550D01*
X0035599Y0114953D01*
X0037301Y0114953D01*
X0037868Y0114386D01*
X0037868Y0112117D01*
X0037301Y0111550D01*
X0038372Y0108251D02*
X0039506Y0108251D01*
X0035823Y0108251D02*
X0034689Y0108251D01*
X0033274Y0109953D02*
X0031005Y0109953D01*
X0031005Y0106550D01*
X0033274Y0106550D01*
X0031251Y0104953D02*
X0031819Y0104386D01*
X0031819Y0103251D01*
X0031251Y0102684D01*
X0029550Y0102684D01*
X0029550Y0101550D02*
X0029550Y0104953D01*
X0031251Y0104953D01*
X0029684Y0106550D02*
X0028550Y0106550D01*
X0029117Y0106550D02*
X0029117Y0109953D01*
X0028550Y0109953D02*
X0029684Y0109953D01*
X0029935Y0111550D02*
X0030502Y0112117D01*
X0030502Y0114953D01*
X0031916Y0114953D02*
X0033618Y0114953D01*
X0034185Y0114386D01*
X0034185Y0113251D01*
X0033618Y0112684D01*
X0031916Y0112684D01*
X0031916Y0111550D02*
X0031916Y0114953D01*
X0031800Y0116550D02*
X0031233Y0117117D01*
X0033502Y0119386D01*
X0033502Y0117117D01*
X0032935Y0116550D01*
X0031800Y0116550D01*
X0031233Y0117117D02*
X0031233Y0119386D01*
X0031800Y0119953D01*
X0032935Y0119953D01*
X0033502Y0119386D01*
X0034916Y0118819D02*
X0036051Y0119953D01*
X0036051Y0116550D01*
X0037185Y0116550D02*
X0034916Y0116550D01*
X0038599Y0118251D02*
X0039734Y0119386D01*
X0040868Y0119953D01*
X0033051Y0112684D02*
X0034185Y0111550D01*
X0032140Y0108251D02*
X0031005Y0108251D01*
X0029935Y0111550D02*
X0028800Y0111550D01*
X0028233Y0112117D01*
X0028233Y0114953D01*
X0026819Y0114386D02*
X0026819Y0113251D01*
X0026251Y0112684D01*
X0024550Y0112684D01*
X0024550Y0111550D02*
X0024550Y0114953D01*
X0026251Y0114953D01*
X0026819Y0114386D01*
X0027550Y0116550D02*
X0029819Y0118819D01*
X0029819Y0119386D01*
X0029251Y0119953D01*
X0028117Y0119953D01*
X0027550Y0119386D01*
X0027550Y0116550D02*
X0029819Y0116550D01*
X0030684Y0102684D02*
X0031819Y0101550D01*
X0029750Y0096250D02*
X0024750Y0096250D01*
X0021250Y0092750D01*
X0021250Y0087750D01*
X0024750Y0084250D01*
X0029750Y0084250D01*
X0033250Y0087750D01*
X0033250Y0092750D01*
X0029750Y0096250D01*
X0015250Y0092750D02*
X0015250Y0087750D01*
X0011750Y0084250D01*
X0006750Y0084250D01*
X0003250Y0087750D01*
X0003250Y0092750D01*
X0006750Y0096250D01*
X0011750Y0096250D01*
X0015250Y0092750D01*
X0011750Y0077250D02*
X0006750Y0077250D01*
X0003250Y0073750D01*
X0003250Y0068750D01*
X0006750Y0065250D01*
X0011750Y0065250D01*
X0015250Y0068750D01*
X0015250Y0073750D01*
X0011750Y0077250D01*
X0021250Y0073750D02*
X0021250Y0068750D01*
X0024750Y0065250D01*
X0029750Y0065250D01*
X0033250Y0068750D01*
X0033250Y0073750D01*
X0029750Y0077250D01*
X0024750Y0077250D01*
X0021250Y0073750D01*
X0024750Y0058250D02*
X0029750Y0058250D01*
X0033250Y0054750D01*
X0033250Y0049750D01*
X0029750Y0046250D01*
X0024750Y0046250D01*
X0021250Y0049750D01*
X0021250Y0054750D01*
X0024750Y0058250D01*
X0015250Y0054750D02*
X0015250Y0049750D01*
X0011750Y0046250D01*
X0006750Y0046250D01*
X0003250Y0049750D01*
X0003250Y0054750D01*
X0006750Y0058250D01*
X0011750Y0058250D01*
X0015250Y0054750D01*
X0011750Y0039250D02*
X0006750Y0039250D01*
X0003250Y0035750D01*
X0003250Y0030750D01*
X0006750Y0027250D01*
X0011750Y0027250D01*
X0015250Y0030750D01*
X0015250Y0035750D01*
X0011750Y0039250D01*
X0021250Y0035750D02*
X0021250Y0030750D01*
X0024750Y0027250D01*
X0029750Y0027250D01*
X0033250Y0030750D01*
X0033250Y0035750D01*
X0029750Y0039250D01*
X0024750Y0039250D01*
X0021250Y0035750D01*
X0046250Y0027750D02*
X0046250Y0012750D01*
X0048750Y0010250D01*
X0053750Y0010250D01*
X0056250Y0012750D01*
X0058750Y0010250D01*
X0063750Y0010250D01*
X0066250Y0012750D01*
X0068750Y0010250D01*
X0073750Y0010250D01*
X0076250Y0012750D01*
X0078750Y0010250D01*
X0083750Y0010250D01*
X0086250Y0012750D01*
X0086250Y0027750D01*
X0083750Y0030250D01*
X0078750Y0030250D01*
X0076250Y0027750D01*
X0073750Y0030250D01*
X0068750Y0030250D01*
X0066250Y0027750D01*
X0063750Y0030250D01*
X0058750Y0030250D01*
X0056250Y0027750D01*
X0053750Y0030250D01*
X0048750Y0030250D01*
X0046250Y0027750D01*
D12*
X0047647Y0008504D02*
X0049148Y0008504D01*
X0049899Y0007753D01*
X0049899Y0007003D01*
X0049148Y0006252D01*
X0047647Y0006252D01*
X0046896Y0007003D01*
X0046896Y0007753D01*
X0047647Y0008504D01*
X0047647Y0006252D02*
X0046896Y0005501D01*
X0046896Y0004751D01*
X0047647Y0004000D01*
X0049148Y0004000D01*
X0049899Y0004751D01*
X0049899Y0005501D01*
X0049148Y0006252D01*
X0072688Y0007003D02*
X0073439Y0006252D01*
X0074940Y0006252D01*
X0075691Y0005501D01*
X0075691Y0004751D01*
X0074940Y0004000D01*
X0073439Y0004000D01*
X0072688Y0004751D01*
X0072688Y0007003D02*
X0072688Y0007753D01*
X0073439Y0008504D01*
X0074940Y0008504D01*
X0075691Y0007753D01*
X0077292Y0008504D02*
X0077292Y0005501D01*
X0078793Y0004000D01*
X0080295Y0005501D01*
X0080295Y0008504D01*
X0081896Y0007753D02*
X0082647Y0008504D01*
X0084148Y0008504D01*
X0084899Y0007753D01*
X0084899Y0007003D01*
X0081896Y0004000D01*
X0084899Y0004000D01*
X0081899Y0032000D02*
X0078896Y0032000D01*
X0080397Y0032000D02*
X0080397Y0036504D01*
X0078896Y0035003D01*
X0104000Y0040500D02*
X0107003Y0040500D01*
X0105501Y0040500D02*
X0105501Y0045004D01*
X0104000Y0043503D01*
X0104000Y0059500D02*
X0107003Y0062503D01*
X0107003Y0063253D01*
X0106252Y0064004D01*
X0104751Y0064004D01*
X0104000Y0063253D01*
X0104000Y0059500D02*
X0107003Y0059500D01*
X0106252Y0078500D02*
X0104751Y0078500D01*
X0104000Y0079251D01*
X0105501Y0080752D02*
X0106252Y0080752D01*
X0107003Y0080001D01*
X0107003Y0079251D01*
X0106252Y0078500D01*
X0106252Y0080752D02*
X0107003Y0081503D01*
X0107003Y0082253D01*
X0106252Y0083004D01*
X0104751Y0083004D01*
X0104000Y0082253D01*
X0106252Y0097500D02*
X0106252Y0102004D01*
X0104000Y0099752D01*
X0107003Y0099752D01*
X0107759Y0111500D02*
X0107759Y0113302D01*
X0107759Y0112401D02*
X0108660Y0113302D01*
X0109110Y0113302D01*
X0106614Y0112851D02*
X0106614Y0112401D01*
X0104813Y0112401D01*
X0104813Y0112851D02*
X0105263Y0113302D01*
X0106164Y0113302D01*
X0106614Y0112851D01*
X0106164Y0111500D02*
X0105263Y0111500D01*
X0104813Y0111950D01*
X0104813Y0112851D01*
X0103668Y0113302D02*
X0102767Y0111500D01*
X0101866Y0113302D01*
X0100352Y0113302D02*
X0100352Y0111500D01*
X0099902Y0111500D02*
X0100803Y0111500D01*
X0100352Y0113302D02*
X0099902Y0113302D01*
X0100352Y0114202D02*
X0100352Y0114653D01*
X0098798Y0113302D02*
X0098347Y0113302D01*
X0097447Y0112401D01*
X0097447Y0111500D02*
X0097447Y0113302D01*
X0096302Y0113752D02*
X0096302Y0111950D01*
X0095851Y0111500D01*
X0094500Y0111500D01*
X0094500Y0114202D01*
X0095851Y0114202D01*
X0096302Y0113752D01*
X0095851Y0116500D02*
X0094950Y0116500D01*
X0094500Y0116950D01*
X0094950Y0117851D02*
X0094500Y0118302D01*
X0094500Y0118752D01*
X0094950Y0119202D01*
X0095851Y0119202D01*
X0096302Y0118752D01*
X0095851Y0117851D02*
X0096302Y0117401D01*
X0096302Y0116950D01*
X0095851Y0116500D01*
X0095851Y0117851D02*
X0094950Y0117851D01*
X0097447Y0117851D02*
X0097447Y0116950D01*
X0097897Y0116500D01*
X0098798Y0116500D01*
X0099248Y0116950D01*
X0099248Y0117851D01*
X0098798Y0118302D01*
X0097897Y0118302D01*
X0097447Y0117851D01*
X0100393Y0116500D02*
X0101294Y0116500D01*
X0100843Y0116500D02*
X0100843Y0119202D01*
X0100393Y0119202D01*
X0102357Y0117851D02*
X0102808Y0118302D01*
X0103709Y0118302D01*
X0104159Y0117851D01*
X0104159Y0117401D01*
X0102357Y0117401D01*
X0102357Y0117851D02*
X0102357Y0116950D01*
X0102808Y0116500D01*
X0103709Y0116500D01*
X0105304Y0116500D02*
X0105304Y0118302D01*
X0106655Y0118302D01*
X0107105Y0117851D01*
X0107105Y0116500D01*
X0108250Y0116950D02*
X0108250Y0117851D01*
X0108701Y0118302D01*
X0109602Y0118302D01*
X0110052Y0117851D01*
X0110052Y0116950D01*
X0109602Y0116500D01*
X0108701Y0116500D01*
X0108250Y0116950D01*
X0111197Y0116500D02*
X0112098Y0116500D01*
X0111647Y0116500D02*
X0111647Y0118302D01*
X0111197Y0118302D01*
X0111647Y0119202D02*
X0111647Y0119653D01*
X0113161Y0117851D02*
X0113612Y0118302D01*
X0114963Y0118302D01*
X0114963Y0119202D02*
X0114963Y0116500D01*
X0113612Y0116500D01*
X0113161Y0116950D01*
X0113161Y0117851D01*
X0084503Y0123751D02*
X0083752Y0123000D01*
X0082251Y0123000D01*
X0081500Y0123751D01*
X0081500Y0124501D01*
X0082251Y0125252D01*
X0083752Y0125252D01*
X0084503Y0124501D01*
X0084503Y0123751D01*
X0083752Y0125252D02*
X0084503Y0126003D01*
X0084503Y0126753D01*
X0083752Y0127504D01*
X0082251Y0127504D01*
X0081500Y0126753D01*
X0081500Y0126003D01*
X0082251Y0125252D01*
X0058710Y0123000D02*
X0055708Y0123000D01*
X0057209Y0123000D02*
X0057209Y0127504D01*
X0055708Y0126003D01*
X0054106Y0124501D02*
X0054106Y0127504D01*
X0051104Y0127504D02*
X0051104Y0124501D01*
X0052605Y0123000D01*
X0054106Y0124501D01*
X0049503Y0124501D02*
X0049503Y0123751D01*
X0048752Y0123000D01*
X0047251Y0123000D01*
X0046500Y0123751D01*
X0047251Y0125252D02*
X0046500Y0126003D01*
X0046500Y0126753D01*
X0047251Y0127504D01*
X0048752Y0127504D01*
X0049503Y0126753D01*
X0048752Y0125252D02*
X0049503Y0124501D01*
X0048752Y0125252D02*
X0047251Y0125252D01*
X0025003Y0102004D02*
X0022000Y0102004D01*
X0022000Y0099752D01*
X0023501Y0100503D01*
X0024252Y0100503D01*
X0025003Y0099752D01*
X0025003Y0098251D01*
X0024252Y0097500D01*
X0022751Y0097500D01*
X0022000Y0098251D01*
X0025003Y0083004D02*
X0023501Y0082253D01*
X0022000Y0080752D01*
X0024252Y0080752D01*
X0025003Y0080001D01*
X0025003Y0079251D01*
X0024252Y0078500D01*
X0022751Y0078500D01*
X0022000Y0079251D01*
X0022000Y0080752D01*
X0022000Y0064004D02*
X0025003Y0064004D01*
X0025003Y0063253D01*
X0022000Y0060251D01*
X0022000Y0059500D01*
X0022751Y0045004D02*
X0024252Y0045004D01*
X0025003Y0044253D01*
X0025003Y0043503D01*
X0024252Y0042752D01*
X0022751Y0042752D01*
X0022000Y0043503D01*
X0022000Y0044253D01*
X0022751Y0045004D01*
X0022751Y0042752D02*
X0022000Y0042001D01*
X0022000Y0041251D01*
X0022751Y0040500D01*
X0024252Y0040500D01*
X0025003Y0041251D01*
X0025003Y0042001D01*
X0024252Y0042752D01*
X0049500Y0095000D02*
X0052503Y0095000D01*
X0051001Y0095000D02*
X0051001Y0099504D01*
X0049500Y0098003D01*
D13*
X0052683Y0091683D02*
X0079848Y0091683D01*
X0081817Y0091683D01*
X0079848Y0091683D02*
X0079848Y0040817D01*
X0052683Y0040817D01*
X0040110Y0019801D02*
X0039350Y0018641D01*
X0039250Y0018581D02*
X0038330Y0019801D01*
X0037439Y0018581D02*
X0039250Y0018581D01*
X0041061Y0018581D01*
X0079848Y0040817D02*
X0081817Y0040817D01*
D14*
X0069050Y0044485D02*
X0064446Y0044485D01*
X0064446Y0046019D02*
X0064446Y0042950D01*
X0064446Y0047554D02*
X0064446Y0049856D01*
X0065213Y0050623D01*
X0066748Y0050623D01*
X0067515Y0049856D01*
X0067515Y0047554D01*
X0069050Y0047554D02*
X0064446Y0047554D01*
X0064446Y0052158D02*
X0064446Y0053692D01*
X0064446Y0052925D02*
X0069050Y0052925D01*
X0069050Y0052158D02*
X0069050Y0053692D01*
X0068283Y0055227D02*
X0069050Y0055994D01*
X0069050Y0057529D01*
X0068283Y0058296D01*
X0068283Y0059831D02*
X0066748Y0059831D01*
X0066748Y0062133D01*
X0067515Y0062900D01*
X0068283Y0062900D01*
X0069050Y0062133D01*
X0069050Y0060598D01*
X0068283Y0059831D01*
X0066748Y0059831D02*
X0065213Y0061366D01*
X0064446Y0062900D01*
X0065981Y0064435D02*
X0064446Y0065970D01*
X0065981Y0067504D01*
X0069050Y0067504D01*
X0068283Y0069039D02*
X0069050Y0069806D01*
X0069050Y0071341D01*
X0068283Y0072108D01*
X0066748Y0072108D01*
X0065981Y0071341D01*
X0065981Y0070574D01*
X0066748Y0069039D01*
X0064446Y0069039D01*
X0064446Y0072108D01*
X0065213Y0073643D02*
X0065981Y0073643D01*
X0066748Y0074410D01*
X0066748Y0076712D01*
X0065213Y0076712D02*
X0064446Y0075945D01*
X0064446Y0074410D01*
X0065213Y0073643D01*
X0065213Y0076712D02*
X0068283Y0076712D01*
X0069050Y0075945D01*
X0069050Y0074410D01*
X0068283Y0073643D01*
X0068283Y0078247D02*
X0066748Y0078247D01*
X0066748Y0080549D01*
X0067515Y0081316D01*
X0068283Y0081316D01*
X0069050Y0080549D01*
X0069050Y0079014D01*
X0068283Y0078247D01*
X0066748Y0078247D02*
X0065213Y0079781D01*
X0064446Y0081316D01*
X0065044Y0093450D02*
X0063509Y0093450D01*
X0062742Y0094217D01*
X0062742Y0098054D01*
X0065811Y0098054D02*
X0065811Y0094217D01*
X0065044Y0093450D01*
X0067346Y0093450D02*
X0070415Y0093450D01*
X0068881Y0093450D02*
X0068881Y0098054D01*
X0067346Y0096519D01*
X0066748Y0067504D02*
X0066748Y0064435D01*
X0065981Y0064435D02*
X0069050Y0064435D01*
X0065213Y0058296D02*
X0064446Y0057529D01*
X0064446Y0055994D01*
X0065213Y0055227D01*
X0068283Y0055227D01*
D15*
X0095250Y0033370D02*
X0095250Y0033130D01*
X0095250Y0025370D02*
X0095250Y0025130D01*
D16*
X0095720Y0022301D02*
X0096721Y0022301D01*
X0096220Y0021551D02*
X0095720Y0021551D01*
X0095247Y0021801D02*
X0095247Y0020800D01*
X0094497Y0020800D01*
X0094247Y0021050D01*
X0094247Y0021801D01*
X0093774Y0022051D02*
X0092773Y0021050D01*
X0093023Y0020800D01*
X0093524Y0020800D01*
X0093774Y0021050D01*
X0093774Y0022051D01*
X0093524Y0022301D01*
X0093023Y0022301D01*
X0092773Y0022051D01*
X0092773Y0021050D01*
X0092301Y0020800D02*
X0091300Y0020800D01*
X0091800Y0020800D02*
X0091800Y0022301D01*
X0091300Y0021801D01*
X0095720Y0022301D02*
X0095720Y0020800D01*
X0094274Y0028300D02*
X0093273Y0028300D01*
X0094274Y0029301D01*
X0094274Y0029551D01*
X0094024Y0029801D01*
X0093523Y0029801D01*
X0093273Y0029551D01*
X0093510Y0029801D02*
X0094010Y0030301D01*
X0094010Y0028800D01*
X0093510Y0028800D02*
X0094511Y0028800D01*
X0094983Y0029050D02*
X0095233Y0028800D01*
X0095984Y0028800D01*
X0095984Y0029801D01*
X0096456Y0029551D02*
X0096957Y0029551D01*
X0096456Y0030301D02*
X0097457Y0030301D01*
X0096456Y0030301D02*
X0096456Y0028800D01*
X0094983Y0029050D02*
X0094983Y0029801D01*
X0093023Y0029050D02*
X0093023Y0028800D01*
X0092773Y0028800D01*
X0092773Y0029050D01*
X0093023Y0029050D01*
X0092801Y0028550D02*
X0092551Y0028300D01*
X0092050Y0028300D01*
X0091800Y0028550D01*
X0091800Y0029551D01*
X0092050Y0029801D01*
X0092551Y0029801D01*
X0092801Y0029551D01*
X0092301Y0030051D02*
X0092301Y0029050D01*
X0092051Y0028800D01*
X0091550Y0028800D01*
X0091300Y0029050D01*
X0092301Y0030051D01*
X0092051Y0030301D01*
X0091550Y0030301D01*
X0091300Y0030051D01*
X0091300Y0029050D01*
X0092050Y0036300D02*
X0092551Y0036300D01*
X0092801Y0036550D01*
X0093273Y0036300D02*
X0094274Y0036300D01*
X0093774Y0036300D02*
X0093774Y0037801D01*
X0093273Y0037301D01*
X0092801Y0037551D02*
X0092551Y0037801D01*
X0092050Y0037801D01*
X0091800Y0037551D01*
X0091800Y0036550D01*
X0092050Y0036300D01*
X0055274Y0037300D02*
X0054273Y0037300D01*
X0055274Y0038301D01*
X0055274Y0038551D01*
X0055024Y0038801D01*
X0054523Y0038801D01*
X0054273Y0038551D01*
X0053801Y0038551D02*
X0053801Y0038051D01*
X0053551Y0037800D01*
X0052800Y0037800D01*
X0052800Y0037300D02*
X0052800Y0038801D01*
X0053551Y0038801D01*
X0053801Y0038551D01*
X0053300Y0037800D02*
X0053801Y0037300D01*
X0053051Y0031301D02*
X0053301Y0031051D01*
X0052300Y0030050D01*
X0052550Y0029800D01*
X0053051Y0029800D01*
X0053301Y0030050D01*
X0053301Y0031051D01*
X0053051Y0031301D02*
X0052550Y0031301D01*
X0052300Y0031051D01*
X0052300Y0030050D01*
X0043800Y0031853D02*
X0042299Y0031853D01*
X0042299Y0032604D01*
X0042549Y0032854D01*
X0043049Y0032854D01*
X0043300Y0032604D01*
X0043300Y0031853D01*
X0043300Y0032354D02*
X0043800Y0032854D01*
X0043800Y0033327D02*
X0043800Y0034328D01*
X0043800Y0033827D02*
X0042299Y0033827D01*
X0042799Y0033327D01*
X0036300Y0033104D02*
X0036300Y0032604D01*
X0036050Y0032353D01*
X0036050Y0031881D02*
X0036300Y0031631D01*
X0036300Y0031130D01*
X0036050Y0030880D01*
X0035549Y0031381D02*
X0035549Y0031631D01*
X0035800Y0031881D01*
X0036050Y0031881D01*
X0035549Y0031631D02*
X0035299Y0031881D01*
X0035049Y0031881D01*
X0034799Y0031631D01*
X0034799Y0031130D01*
X0035049Y0030880D01*
X0035049Y0032353D02*
X0034799Y0032604D01*
X0034799Y0033104D01*
X0035049Y0033354D01*
X0035299Y0033354D01*
X0035549Y0033104D01*
X0035800Y0033354D01*
X0036050Y0033354D01*
X0036300Y0033104D01*
X0035549Y0033104D02*
X0035549Y0032854D01*
X0035049Y0033827D02*
X0034799Y0034077D01*
X0034799Y0034577D01*
X0035049Y0034828D01*
X0036050Y0033827D01*
X0036300Y0034077D01*
X0036300Y0034577D01*
X0036050Y0034828D01*
X0035049Y0034828D01*
X0035049Y0033827D02*
X0036050Y0033827D01*
X0036050Y0022828D02*
X0036050Y0021827D01*
X0036300Y0021827D02*
X0035799Y0021827D01*
X0035549Y0022077D01*
X0035549Y0022577D01*
X0035799Y0022828D01*
X0036050Y0022828D01*
X0036550Y0022577D02*
X0036550Y0022077D01*
X0036300Y0021827D01*
X0036550Y0021354D02*
X0036550Y0020604D01*
X0036300Y0020353D01*
X0035799Y0020353D01*
X0035549Y0020604D01*
X0035549Y0021354D01*
X0036800Y0021354D01*
X0037050Y0021104D01*
X0037050Y0020854D01*
X0036550Y0019881D02*
X0035799Y0019881D01*
X0035549Y0019631D01*
X0035549Y0018880D01*
X0036550Y0018880D01*
X0036550Y0018408D02*
X0036550Y0017657D01*
X0036300Y0017407D01*
X0036050Y0017657D01*
X0036050Y0018408D01*
X0035799Y0018408D02*
X0036550Y0018408D01*
X0035799Y0018408D02*
X0035549Y0018158D01*
X0035549Y0017657D01*
X0035549Y0016930D02*
X0035549Y0016680D01*
X0036050Y0016179D01*
X0036550Y0016179D02*
X0035549Y0016179D01*
X0035299Y0015707D02*
X0035049Y0015457D01*
X0035049Y0014956D01*
X0035299Y0014706D01*
X0036300Y0014706D01*
X0036550Y0014956D01*
X0036550Y0015457D01*
X0036300Y0015707D01*
X0035299Y0015707D01*
X0042049Y0016907D02*
X0043550Y0016907D01*
X0043550Y0017908D01*
X0043550Y0018380D02*
X0042049Y0018380D01*
X0042049Y0019381D01*
X0042049Y0019853D02*
X0042049Y0020604D01*
X0042299Y0020854D01*
X0043300Y0020854D01*
X0043550Y0020604D01*
X0043550Y0019853D01*
X0042049Y0019853D01*
X0042799Y0018881D02*
X0042799Y0018380D01*
X0043550Y0018380D02*
X0043550Y0019381D01*
X0043550Y0021327D02*
X0043550Y0022328D01*
X0043550Y0021827D02*
X0042049Y0021827D01*
X0042549Y0021327D01*
D17*
X0027576Y0034750D02*
X0027576Y0034850D01*
X0027526Y0034800D01*
X0027593Y0034800D01*
X0027501Y0034750D02*
X0027434Y0034750D01*
X0027409Y0034750D02*
X0027342Y0034750D01*
X0027342Y0034850D01*
X0027409Y0034850D01*
X0027434Y0034817D02*
X0027468Y0034850D01*
X0027468Y0034750D01*
X0027375Y0034800D02*
X0027342Y0034800D01*
X0027317Y0034783D02*
X0027317Y0034767D01*
X0027300Y0034750D01*
X0027267Y0034750D01*
X0027250Y0034767D01*
X0027267Y0034800D02*
X0027300Y0034800D01*
X0027317Y0034783D01*
X0027317Y0034833D02*
X0027300Y0034850D01*
X0027267Y0034850D01*
X0027250Y0034833D01*
X0027250Y0034817D01*
X0027267Y0034800D01*
X0009593Y0034800D02*
X0009526Y0034800D01*
X0009576Y0034850D01*
X0009576Y0034750D01*
X0009501Y0034750D02*
X0009434Y0034750D01*
X0009409Y0034750D02*
X0009342Y0034750D01*
X0009342Y0034850D01*
X0009409Y0034850D01*
X0009434Y0034817D02*
X0009468Y0034850D01*
X0009468Y0034750D01*
X0009375Y0034800D02*
X0009342Y0034800D01*
X0009317Y0034783D02*
X0009317Y0034767D01*
X0009300Y0034750D01*
X0009267Y0034750D01*
X0009250Y0034767D01*
X0009267Y0034800D02*
X0009300Y0034800D01*
X0009317Y0034783D01*
X0009317Y0034833D02*
X0009300Y0034850D01*
X0009267Y0034850D01*
X0009250Y0034833D01*
X0009250Y0034817D01*
X0009267Y0034800D01*
X0009267Y0053750D02*
X0009250Y0053767D01*
X0009267Y0053750D02*
X0009300Y0053750D01*
X0009317Y0053767D01*
X0009317Y0053783D01*
X0009300Y0053800D01*
X0009267Y0053800D01*
X0009250Y0053817D01*
X0009250Y0053833D01*
X0009267Y0053850D01*
X0009300Y0053850D01*
X0009317Y0053833D01*
X0009342Y0053850D02*
X0009342Y0053750D01*
X0009409Y0053750D01*
X0009434Y0053750D02*
X0009501Y0053750D01*
X0009468Y0053750D02*
X0009468Y0053850D01*
X0009434Y0053817D01*
X0009409Y0053850D02*
X0009342Y0053850D01*
X0009342Y0053800D02*
X0009375Y0053800D01*
X0009526Y0053800D02*
X0009593Y0053800D01*
X0009576Y0053750D02*
X0009576Y0053850D01*
X0009526Y0053800D01*
X0027250Y0053817D02*
X0027267Y0053800D01*
X0027300Y0053800D01*
X0027317Y0053783D01*
X0027317Y0053767D01*
X0027300Y0053750D01*
X0027267Y0053750D01*
X0027250Y0053767D01*
X0027250Y0053817D02*
X0027250Y0053833D01*
X0027267Y0053850D01*
X0027300Y0053850D01*
X0027317Y0053833D01*
X0027342Y0053850D02*
X0027342Y0053750D01*
X0027409Y0053750D01*
X0027434Y0053750D02*
X0027501Y0053750D01*
X0027468Y0053750D02*
X0027468Y0053850D01*
X0027434Y0053817D01*
X0027409Y0053850D02*
X0027342Y0053850D01*
X0027342Y0053800D02*
X0027375Y0053800D01*
X0027526Y0053800D02*
X0027593Y0053800D01*
X0027576Y0053750D02*
X0027576Y0053850D01*
X0027526Y0053800D01*
X0027434Y0072750D02*
X0027501Y0072750D01*
X0027468Y0072750D02*
X0027468Y0072850D01*
X0027434Y0072817D01*
X0027409Y0072850D02*
X0027342Y0072850D01*
X0027342Y0072750D01*
X0027409Y0072750D01*
X0027375Y0072800D02*
X0027342Y0072800D01*
X0027317Y0072783D02*
X0027317Y0072767D01*
X0027300Y0072750D01*
X0027267Y0072750D01*
X0027250Y0072767D01*
X0027267Y0072800D02*
X0027300Y0072800D01*
X0027317Y0072783D01*
X0027317Y0072833D02*
X0027300Y0072850D01*
X0027267Y0072850D01*
X0027250Y0072833D01*
X0027250Y0072817D01*
X0027267Y0072800D01*
X0027526Y0072800D02*
X0027593Y0072800D01*
X0027576Y0072750D02*
X0027576Y0072850D01*
X0027526Y0072800D01*
X0009593Y0072800D02*
X0009526Y0072800D01*
X0009576Y0072850D01*
X0009576Y0072750D01*
X0009501Y0072750D02*
X0009434Y0072750D01*
X0009409Y0072750D02*
X0009342Y0072750D01*
X0009342Y0072850D01*
X0009409Y0072850D01*
X0009434Y0072817D02*
X0009468Y0072850D01*
X0009468Y0072750D01*
X0009375Y0072800D02*
X0009342Y0072800D01*
X0009317Y0072783D02*
X0009317Y0072767D01*
X0009300Y0072750D01*
X0009267Y0072750D01*
X0009250Y0072767D01*
X0009267Y0072800D02*
X0009300Y0072800D01*
X0009317Y0072783D01*
X0009317Y0072833D02*
X0009300Y0072850D01*
X0009267Y0072850D01*
X0009250Y0072833D01*
X0009250Y0072817D01*
X0009267Y0072800D01*
X0009267Y0091750D02*
X0009250Y0091767D01*
X0009267Y0091750D02*
X0009300Y0091750D01*
X0009317Y0091767D01*
X0009317Y0091783D01*
X0009300Y0091800D01*
X0009267Y0091800D01*
X0009250Y0091817D01*
X0009250Y0091833D01*
X0009267Y0091850D01*
X0009300Y0091850D01*
X0009317Y0091833D01*
X0009342Y0091850D02*
X0009342Y0091750D01*
X0009409Y0091750D01*
X0009434Y0091750D02*
X0009501Y0091750D01*
X0009468Y0091750D02*
X0009468Y0091850D01*
X0009434Y0091817D01*
X0009409Y0091850D02*
X0009342Y0091850D01*
X0009342Y0091800D02*
X0009375Y0091800D01*
X0009526Y0091800D02*
X0009593Y0091800D01*
X0009576Y0091750D02*
X0009576Y0091850D01*
X0009526Y0091800D01*
X0027250Y0091817D02*
X0027267Y0091800D01*
X0027300Y0091800D01*
X0027317Y0091783D01*
X0027317Y0091767D01*
X0027300Y0091750D01*
X0027267Y0091750D01*
X0027250Y0091767D01*
X0027250Y0091817D02*
X0027250Y0091833D01*
X0027267Y0091850D01*
X0027300Y0091850D01*
X0027317Y0091833D01*
X0027342Y0091850D02*
X0027342Y0091750D01*
X0027409Y0091750D01*
X0027434Y0091750D02*
X0027501Y0091750D01*
X0027468Y0091750D02*
X0027468Y0091850D01*
X0027434Y0091817D01*
X0027409Y0091850D02*
X0027342Y0091850D01*
X0027342Y0091800D02*
X0027375Y0091800D01*
X0027526Y0091800D02*
X0027593Y0091800D01*
X0027576Y0091750D02*
X0027576Y0091850D01*
X0027526Y0091800D01*
X0109250Y0091767D02*
X0109267Y0091750D01*
X0109300Y0091750D01*
X0109317Y0091767D01*
X0109317Y0091783D01*
X0109300Y0091800D01*
X0109267Y0091800D01*
X0109250Y0091817D01*
X0109250Y0091833D01*
X0109267Y0091850D01*
X0109300Y0091850D01*
X0109317Y0091833D01*
X0109342Y0091850D02*
X0109342Y0091750D01*
X0109409Y0091750D01*
X0109434Y0091750D02*
X0109501Y0091750D01*
X0109468Y0091750D02*
X0109468Y0091850D01*
X0109434Y0091817D01*
X0109409Y0091850D02*
X0109342Y0091850D01*
X0109342Y0091800D02*
X0109375Y0091800D01*
X0109526Y0091800D02*
X0109593Y0091800D01*
X0109576Y0091750D02*
X0109576Y0091850D01*
X0109526Y0091800D01*
X0127250Y0091817D02*
X0127267Y0091800D01*
X0127300Y0091800D01*
X0127317Y0091783D01*
X0127317Y0091767D01*
X0127300Y0091750D01*
X0127267Y0091750D01*
X0127250Y0091767D01*
X0127250Y0091817D02*
X0127250Y0091833D01*
X0127267Y0091850D01*
X0127300Y0091850D01*
X0127317Y0091833D01*
X0127342Y0091850D02*
X0127342Y0091750D01*
X0127409Y0091750D01*
X0127434Y0091750D02*
X0127501Y0091750D01*
X0127468Y0091750D02*
X0127468Y0091850D01*
X0127434Y0091817D01*
X0127409Y0091850D02*
X0127342Y0091850D01*
X0127342Y0091800D02*
X0127375Y0091800D01*
X0127526Y0091800D02*
X0127593Y0091800D01*
X0127576Y0091750D02*
X0127576Y0091850D01*
X0127526Y0091800D01*
X0127576Y0072850D02*
X0127526Y0072800D01*
X0127593Y0072800D01*
X0127576Y0072750D02*
X0127576Y0072850D01*
X0127468Y0072850D02*
X0127468Y0072750D01*
X0127501Y0072750D02*
X0127434Y0072750D01*
X0127409Y0072750D02*
X0127342Y0072750D01*
X0127342Y0072850D01*
X0127409Y0072850D01*
X0127434Y0072817D02*
X0127468Y0072850D01*
X0127375Y0072800D02*
X0127342Y0072800D01*
X0127317Y0072783D02*
X0127317Y0072767D01*
X0127300Y0072750D01*
X0127267Y0072750D01*
X0127250Y0072767D01*
X0127267Y0072800D02*
X0127300Y0072800D01*
X0127317Y0072783D01*
X0127317Y0072833D02*
X0127300Y0072850D01*
X0127267Y0072850D01*
X0127250Y0072833D01*
X0127250Y0072817D01*
X0127267Y0072800D01*
X0109593Y0072800D02*
X0109526Y0072800D01*
X0109576Y0072850D01*
X0109576Y0072750D01*
X0109501Y0072750D02*
X0109434Y0072750D01*
X0109409Y0072750D02*
X0109342Y0072750D01*
X0109342Y0072850D01*
X0109409Y0072850D01*
X0109434Y0072817D02*
X0109468Y0072850D01*
X0109468Y0072750D01*
X0109375Y0072800D02*
X0109342Y0072800D01*
X0109317Y0072783D02*
X0109317Y0072767D01*
X0109300Y0072750D01*
X0109267Y0072750D01*
X0109250Y0072767D01*
X0109267Y0072800D02*
X0109300Y0072800D01*
X0109317Y0072783D01*
X0109317Y0072833D02*
X0109300Y0072850D01*
X0109267Y0072850D01*
X0109250Y0072833D01*
X0109250Y0072817D01*
X0109267Y0072800D01*
X0109267Y0053850D02*
X0109250Y0053833D01*
X0109250Y0053817D01*
X0109267Y0053800D01*
X0109300Y0053800D01*
X0109317Y0053783D01*
X0109317Y0053767D01*
X0109300Y0053750D01*
X0109267Y0053750D01*
X0109250Y0053767D01*
X0109267Y0053850D02*
X0109300Y0053850D01*
X0109317Y0053833D01*
X0109342Y0053850D02*
X0109342Y0053750D01*
X0109409Y0053750D01*
X0109434Y0053750D02*
X0109501Y0053750D01*
X0109468Y0053750D02*
X0109468Y0053850D01*
X0109434Y0053817D01*
X0109409Y0053850D02*
X0109342Y0053850D01*
X0109342Y0053800D02*
X0109375Y0053800D01*
X0109526Y0053800D02*
X0109593Y0053800D01*
X0109576Y0053750D02*
X0109576Y0053850D01*
X0109526Y0053800D01*
X0127250Y0053817D02*
X0127267Y0053800D01*
X0127300Y0053800D01*
X0127317Y0053783D01*
X0127317Y0053767D01*
X0127300Y0053750D01*
X0127267Y0053750D01*
X0127250Y0053767D01*
X0127250Y0053817D02*
X0127250Y0053833D01*
X0127267Y0053850D01*
X0127300Y0053850D01*
X0127317Y0053833D01*
X0127342Y0053850D02*
X0127342Y0053750D01*
X0127409Y0053750D01*
X0127434Y0053750D02*
X0127501Y0053750D01*
X0127468Y0053750D02*
X0127468Y0053850D01*
X0127434Y0053817D01*
X0127409Y0053850D02*
X0127342Y0053850D01*
X0127342Y0053800D02*
X0127375Y0053800D01*
X0127526Y0053800D02*
X0127593Y0053800D01*
X0127576Y0053750D02*
X0127576Y0053850D01*
X0127526Y0053800D01*
X0127576Y0034850D02*
X0127526Y0034800D01*
X0127593Y0034800D01*
X0127576Y0034750D02*
X0127576Y0034850D01*
X0127468Y0034850D02*
X0127468Y0034750D01*
X0127501Y0034750D02*
X0127434Y0034750D01*
X0127409Y0034750D02*
X0127342Y0034750D01*
X0127342Y0034850D01*
X0127409Y0034850D01*
X0127434Y0034817D02*
X0127468Y0034850D01*
X0127375Y0034800D02*
X0127342Y0034800D01*
X0127317Y0034783D02*
X0127317Y0034767D01*
X0127300Y0034750D01*
X0127267Y0034750D01*
X0127250Y0034767D01*
X0127267Y0034800D02*
X0127300Y0034800D01*
X0127317Y0034783D01*
X0127317Y0034833D02*
X0127300Y0034850D01*
X0127267Y0034850D01*
X0127250Y0034833D01*
X0127250Y0034817D01*
X0127267Y0034800D01*
X0109593Y0034800D02*
X0109526Y0034800D01*
X0109576Y0034850D01*
X0109576Y0034750D01*
X0109501Y0034750D02*
X0109434Y0034750D01*
X0109409Y0034750D02*
X0109342Y0034750D01*
X0109342Y0034850D01*
X0109409Y0034850D01*
X0109434Y0034817D02*
X0109468Y0034850D01*
X0109468Y0034750D01*
X0109375Y0034800D02*
X0109342Y0034800D01*
X0109317Y0034783D02*
X0109317Y0034767D01*
X0109300Y0034750D01*
X0109267Y0034750D01*
X0109250Y0034767D01*
X0109267Y0034800D02*
X0109300Y0034800D01*
X0109317Y0034783D01*
X0109317Y0034833D02*
X0109300Y0034850D01*
X0109267Y0034850D01*
X0109250Y0034833D01*
X0109250Y0034817D01*
X0109267Y0034800D01*
D18*
X0039250Y0031250D03*
D19*
X0056250Y0034250D03*
M02*
