G75*
%MOIN*%
%OFA0B0*%
%FSLAX25Y25*%
%IPPOS*%
%LPD*%
%AMOC8*
5,1,8,0,0,1.08239X$1,22.5*
%
%ADD10C,0.17800*%
%ADD11R,0.14304X0.07296*%
%ADD12R,0.05800X0.10800*%
%ADD13R,0.07296X0.14304*%
%ADD14R,0.10800X0.05800*%
%ADD15C,0.06737*%
%ADD16C,0.12611*%
%ADD17C,0.11430*%
%ADD18C,0.13398*%
%ADD19R,0.04737X0.05131*%
%ADD20OC8,0.06800*%
%ADD21C,0.10249*%
D10*
X0141800Y0141800D03*
X0141800Y0541800D03*
X0541800Y0541800D03*
X0541800Y0141800D03*
D11*
X0564024Y0195048D03*
X0564024Y0240048D03*
X0564024Y0285048D03*
X0564024Y0330048D03*
X0564024Y0375048D03*
X0564024Y0420048D03*
X0564024Y0465048D03*
X0564024Y0510048D03*
X0630048Y0510048D03*
X0630048Y0465048D03*
X0630048Y0420048D03*
X0630048Y0375048D03*
X0630048Y0330048D03*
X0630048Y0285048D03*
X0630048Y0240048D03*
X0630048Y0195048D03*
X0090048Y0195048D03*
X0090048Y0240048D03*
X0090048Y0280048D03*
X0090048Y0320048D03*
X0090048Y0360048D03*
X0090048Y0400048D03*
X0090048Y0440048D03*
X0090048Y0480048D03*
X0024024Y0480048D03*
X0024024Y0440048D03*
X0024024Y0400048D03*
X0024024Y0360048D03*
X0024024Y0320048D03*
X0024024Y0280048D03*
X0024024Y0240048D03*
X0024024Y0195048D03*
D12*
X0039320Y0207371D03*
X0051131Y0207371D03*
X0062942Y0207371D03*
X0074753Y0207371D03*
X0074753Y0252371D03*
X0062942Y0252371D03*
X0051131Y0252371D03*
X0039320Y0252371D03*
X0039320Y0292371D03*
X0051131Y0292371D03*
X0062942Y0292371D03*
X0074753Y0292371D03*
X0074753Y0332371D03*
X0062942Y0332371D03*
X0051131Y0332371D03*
X0039320Y0332371D03*
X0039320Y0372371D03*
X0051131Y0372371D03*
X0062942Y0372371D03*
X0074753Y0372371D03*
X0074753Y0412371D03*
X0062942Y0412371D03*
X0051131Y0412371D03*
X0039320Y0412371D03*
X0039320Y0452371D03*
X0051131Y0452371D03*
X0062942Y0452371D03*
X0074753Y0452371D03*
X0074753Y0492371D03*
X0062942Y0492371D03*
X0051131Y0492371D03*
X0039320Y0492371D03*
X0579320Y0477371D03*
X0591131Y0477371D03*
X0602942Y0477371D03*
X0614753Y0477371D03*
X0614753Y0432371D03*
X0602942Y0432371D03*
X0591131Y0432371D03*
X0579320Y0432371D03*
X0579320Y0387371D03*
X0591131Y0387371D03*
X0602942Y0387371D03*
X0614753Y0387371D03*
X0614753Y0342371D03*
X0602942Y0342371D03*
X0591131Y0342371D03*
X0579320Y0342371D03*
X0579320Y0297371D03*
X0591131Y0297371D03*
X0602942Y0297371D03*
X0614753Y0297371D03*
X0614753Y0252371D03*
X0602942Y0252371D03*
X0591131Y0252371D03*
X0579320Y0252371D03*
X0579320Y0207371D03*
X0591131Y0207371D03*
X0602942Y0207371D03*
X0614753Y0207371D03*
X0614753Y0522371D03*
X0602942Y0522371D03*
X0591131Y0522371D03*
X0579320Y0522371D03*
D13*
X0408552Y0494024D03*
X0353552Y0494024D03*
X0303552Y0494024D03*
X0253552Y0494024D03*
X0253552Y0560048D03*
X0303552Y0560048D03*
X0303552Y0589024D03*
X0353552Y0589024D03*
X0353552Y0560048D03*
X0408552Y0560048D03*
X0408552Y0589024D03*
X0408552Y0655048D03*
X0353552Y0655048D03*
X0303552Y0655048D03*
D14*
X0291229Y0639753D03*
X0291229Y0627942D03*
X0291229Y0616131D03*
X0291229Y0604320D03*
X0341229Y0604320D03*
X0341229Y0616131D03*
X0341229Y0627942D03*
X0341229Y0639753D03*
X0396229Y0639753D03*
X0396229Y0627942D03*
X0396229Y0616131D03*
X0396229Y0604320D03*
X0396229Y0544753D03*
X0396229Y0532942D03*
X0396229Y0521131D03*
X0396229Y0509320D03*
X0341229Y0509320D03*
X0341229Y0521131D03*
X0341229Y0532942D03*
X0341229Y0544753D03*
X0291229Y0544753D03*
X0291229Y0532942D03*
X0291229Y0521131D03*
X0291229Y0509320D03*
X0241229Y0509320D03*
X0241229Y0521131D03*
X0241229Y0532942D03*
X0241229Y0544753D03*
D15*
X0166997Y0460658D03*
X0157154Y0460658D03*
X0147312Y0460658D03*
X0137469Y0460658D03*
X0137469Y0448847D03*
X0137469Y0439005D03*
X0147312Y0439005D03*
X0147312Y0448847D03*
X0157154Y0448847D03*
X0157154Y0439005D03*
X0166997Y0439005D03*
X0166997Y0448847D03*
X0166997Y0427194D03*
X0166997Y0417351D03*
X0157154Y0417351D03*
X0147312Y0417351D03*
X0147312Y0427194D03*
X0157154Y0427194D03*
X0137469Y0427194D03*
X0137469Y0417351D03*
X0137469Y0405540D03*
X0147312Y0405540D03*
X0157154Y0405540D03*
X0157154Y0395698D03*
X0147312Y0395698D03*
X0137469Y0395698D03*
X0137469Y0383887D03*
X0147312Y0383887D03*
X0157154Y0383887D03*
X0166997Y0383887D03*
X0166997Y0395698D03*
X0166997Y0405540D03*
X0166997Y0374044D03*
X0157154Y0374044D03*
X0147312Y0374044D03*
X0137469Y0374044D03*
X0137469Y0362233D03*
X0137469Y0352391D03*
X0147312Y0352391D03*
X0147312Y0362233D03*
X0157154Y0362233D03*
X0157154Y0352391D03*
X0166997Y0352391D03*
X0166997Y0362233D03*
X0166997Y0340580D03*
X0157154Y0340580D03*
X0147312Y0340580D03*
X0137469Y0340580D03*
X0137469Y0323257D03*
X0147312Y0323257D03*
X0157154Y0323257D03*
X0166997Y0323257D03*
X0166997Y0311446D03*
X0166997Y0301603D03*
X0157154Y0301603D03*
X0147312Y0301603D03*
X0147312Y0311446D03*
X0157154Y0311446D03*
X0137469Y0311446D03*
X0137469Y0301603D03*
X0137469Y0289792D03*
X0147312Y0289792D03*
X0157154Y0289792D03*
X0157154Y0279950D03*
X0147312Y0279950D03*
X0137469Y0279950D03*
X0137469Y0268139D03*
X0147312Y0268139D03*
X0157154Y0268139D03*
X0166997Y0268139D03*
X0166997Y0279950D03*
X0166997Y0289792D03*
X0166997Y0258296D03*
X0166997Y0246485D03*
X0166997Y0236643D03*
X0157154Y0236643D03*
X0147312Y0236643D03*
X0137469Y0236643D03*
X0137469Y0246485D03*
X0147312Y0246485D03*
X0157154Y0246485D03*
X0157154Y0258296D03*
X0147312Y0258296D03*
X0137469Y0258296D03*
X0137469Y0224831D03*
X0137469Y0214989D03*
X0147312Y0214989D03*
X0157154Y0214989D03*
X0157154Y0224831D03*
X0147312Y0224831D03*
X0166997Y0224831D03*
X0166997Y0214989D03*
X0166997Y0203178D03*
X0157154Y0203178D03*
X0147312Y0203178D03*
X0137469Y0203178D03*
X0279738Y0203065D03*
X0279738Y0193223D03*
X0289580Y0193223D03*
X0289580Y0203065D03*
X0299423Y0203065D03*
X0299423Y0193223D03*
X0309265Y0193223D03*
X0309265Y0203065D03*
X0309265Y0214876D03*
X0309265Y0224719D03*
X0299423Y0224719D03*
X0299423Y0214876D03*
X0289580Y0214876D03*
X0289580Y0224719D03*
X0279738Y0224719D03*
X0279738Y0214876D03*
X0279738Y0236530D03*
X0289580Y0236530D03*
X0299423Y0236530D03*
X0309265Y0236530D03*
X0309265Y0246372D03*
X0309265Y0258183D03*
X0299423Y0258183D03*
X0289580Y0258183D03*
X0289580Y0246372D03*
X0299423Y0246372D03*
X0279738Y0246372D03*
X0279738Y0258183D03*
X0283320Y0278538D03*
X0293320Y0278538D03*
X0293320Y0288538D03*
X0283320Y0288538D03*
X0283320Y0298538D03*
X0293320Y0298538D03*
X0293320Y0308538D03*
X0283320Y0308538D03*
X0283320Y0318538D03*
X0293320Y0318538D03*
X0293320Y0328538D03*
X0283320Y0328538D03*
X0283320Y0338538D03*
X0283320Y0348538D03*
X0293320Y0348538D03*
X0293320Y0338538D03*
X0303320Y0338538D03*
X0303320Y0348538D03*
X0303320Y0328538D03*
X0303320Y0318538D03*
X0303320Y0308538D03*
X0303320Y0298538D03*
X0303320Y0288538D03*
X0303320Y0278538D03*
X0379069Y0258187D03*
X0388912Y0258187D03*
X0388912Y0246376D03*
X0379069Y0246376D03*
X0379069Y0236534D03*
X0388912Y0236534D03*
X0398754Y0236534D03*
X0408597Y0236534D03*
X0408597Y0246376D03*
X0398754Y0246376D03*
X0398754Y0258187D03*
X0408597Y0258187D03*
X0402652Y0278542D03*
X0392652Y0278542D03*
X0392652Y0288542D03*
X0392652Y0298542D03*
X0402652Y0298542D03*
X0402652Y0288542D03*
X0402652Y0308542D03*
X0402652Y0318542D03*
X0392652Y0318542D03*
X0392652Y0308542D03*
X0382652Y0308542D03*
X0382652Y0318542D03*
X0382652Y0328542D03*
X0382652Y0338542D03*
X0382652Y0348542D03*
X0392652Y0348542D03*
X0402652Y0348542D03*
X0402652Y0338542D03*
X0392652Y0338542D03*
X0392652Y0328542D03*
X0402652Y0328542D03*
X0382652Y0298542D03*
X0382652Y0288542D03*
X0382652Y0278542D03*
X0379069Y0224723D03*
X0379069Y0214880D03*
X0388912Y0214880D03*
X0388912Y0224723D03*
X0398754Y0224723D03*
X0398754Y0214880D03*
X0408597Y0214880D03*
X0408597Y0224723D03*
X0408597Y0203069D03*
X0408597Y0193227D03*
X0398754Y0193227D03*
X0398754Y0203069D03*
X0388912Y0203069D03*
X0388912Y0193227D03*
X0379069Y0193227D03*
X0379069Y0203069D03*
X0379069Y0181416D03*
X0388912Y0181416D03*
X0398754Y0181416D03*
X0408597Y0181416D03*
X0469438Y0181520D03*
X0469438Y0171678D03*
X0479280Y0171678D03*
X0479280Y0181520D03*
X0489123Y0181520D03*
X0489123Y0171678D03*
X0498965Y0171678D03*
X0498965Y0181520D03*
X0498965Y0193331D03*
X0489123Y0193331D03*
X0479280Y0193331D03*
X0479280Y0203174D03*
X0489123Y0203174D03*
X0498965Y0203174D03*
X0498965Y0214985D03*
X0489123Y0214985D03*
X0489123Y0224828D03*
X0498965Y0224828D03*
X0498965Y0236639D03*
X0489123Y0236639D03*
X0479280Y0236639D03*
X0479280Y0246481D03*
X0489123Y0246481D03*
X0498965Y0246481D03*
X0498965Y0258292D03*
X0489123Y0258292D03*
X0479280Y0258292D03*
X0469438Y0258292D03*
X0469438Y0246481D03*
X0469438Y0236639D03*
X0469438Y0224828D03*
X0469438Y0214985D03*
X0479280Y0214985D03*
X0479280Y0224828D03*
X0469438Y0203174D03*
X0469438Y0193331D03*
X0469438Y0159867D03*
X0479280Y0159867D03*
X0489123Y0159867D03*
X0498965Y0159867D03*
X0498965Y0150024D03*
X0489123Y0150024D03*
X0479280Y0150024D03*
X0479280Y0138213D03*
X0489123Y0138213D03*
X0498965Y0138213D03*
X0469438Y0138213D03*
X0469438Y0150024D03*
X0389162Y0059123D03*
X0379162Y0059123D03*
X0369162Y0059123D03*
X0369162Y0049123D03*
X0379162Y0049123D03*
X0389162Y0049123D03*
X0389162Y0039123D03*
X0379162Y0039123D03*
X0369162Y0039123D03*
X0359162Y0039123D03*
X0349162Y0039123D03*
X0339162Y0039123D03*
X0329162Y0039123D03*
X0319162Y0039123D03*
X0319162Y0049123D03*
X0319162Y0059123D03*
X0329162Y0059123D03*
X0329162Y0049123D03*
X0339162Y0049123D03*
X0339162Y0059123D03*
X0349162Y0059123D03*
X0349162Y0049123D03*
X0359162Y0049123D03*
X0359162Y0059123D03*
X0309265Y0138105D03*
X0309265Y0149916D03*
X0299423Y0149916D03*
X0289580Y0149916D03*
X0289580Y0138105D03*
X0299423Y0138105D03*
X0279738Y0138105D03*
X0279738Y0149916D03*
X0279738Y0159758D03*
X0289580Y0159758D03*
X0299423Y0159758D03*
X0309265Y0159758D03*
X0309265Y0171569D03*
X0309265Y0181412D03*
X0299423Y0181412D03*
X0289580Y0181412D03*
X0289580Y0171569D03*
X0299423Y0171569D03*
X0279738Y0171569D03*
X0279738Y0181412D03*
X0382652Y0370038D03*
X0382652Y0380038D03*
X0382652Y0390038D03*
X0382652Y0400038D03*
X0382652Y0410038D03*
X0382652Y0420038D03*
X0382652Y0430038D03*
X0382652Y0440038D03*
X0392652Y0440038D03*
X0402652Y0440038D03*
X0402652Y0430038D03*
X0392652Y0430038D03*
X0392652Y0420038D03*
X0402652Y0420038D03*
X0402652Y0410038D03*
X0392652Y0410038D03*
X0392652Y0400038D03*
X0402652Y0400038D03*
X0402652Y0390038D03*
X0392652Y0390038D03*
X0392652Y0380038D03*
X0402652Y0380038D03*
X0402652Y0370038D03*
X0392652Y0370038D03*
X0473020Y0370143D03*
X0473020Y0380143D03*
X0483020Y0380143D03*
X0483020Y0370143D03*
X0493020Y0370143D03*
X0493020Y0380143D03*
X0493020Y0390143D03*
X0493020Y0400143D03*
X0493020Y0410143D03*
X0493020Y0420143D03*
X0493020Y0430143D03*
X0493020Y0440143D03*
X0483020Y0440143D03*
X0473020Y0440143D03*
X0473020Y0430143D03*
X0483020Y0430143D03*
X0483020Y0420143D03*
X0473020Y0420143D03*
X0473020Y0410143D03*
X0483020Y0410143D03*
X0483020Y0400143D03*
X0473020Y0400143D03*
X0473020Y0390143D03*
X0483020Y0390143D03*
X0483020Y0348646D03*
X0473020Y0348646D03*
X0473020Y0338646D03*
X0473020Y0328646D03*
X0483020Y0328646D03*
X0483020Y0338646D03*
X0493020Y0338646D03*
X0493020Y0328646D03*
X0493020Y0318646D03*
X0493020Y0308646D03*
X0483020Y0308646D03*
X0473020Y0308646D03*
X0473020Y0318646D03*
X0483020Y0318646D03*
X0483020Y0298646D03*
X0473020Y0298646D03*
X0473020Y0288646D03*
X0483020Y0288646D03*
X0483020Y0278646D03*
X0473020Y0278646D03*
X0493020Y0278646D03*
X0493020Y0288646D03*
X0493020Y0298646D03*
X0493020Y0348646D03*
X0489123Y0459080D03*
X0498965Y0459080D03*
X0498965Y0470891D03*
X0489123Y0470891D03*
X0479280Y0470891D03*
X0479280Y0459080D03*
X0469438Y0459080D03*
X0469438Y0470891D03*
X0469438Y0480733D03*
X0479280Y0480733D03*
X0489123Y0480733D03*
X0498965Y0480733D03*
X0498965Y0492544D03*
X0489123Y0492544D03*
X0489123Y0502387D03*
X0498965Y0502387D03*
X0498965Y0514198D03*
X0498965Y0524040D03*
X0489123Y0524040D03*
X0489123Y0514198D03*
X0479280Y0514198D03*
X0479280Y0524040D03*
X0469438Y0524040D03*
X0469438Y0514198D03*
X0469438Y0502387D03*
X0469438Y0492544D03*
X0479280Y0492544D03*
X0479280Y0502387D03*
X0479280Y0535851D03*
X0479280Y0545694D03*
X0489123Y0545694D03*
X0498965Y0545694D03*
X0498965Y0535851D03*
X0489123Y0535851D03*
X0469438Y0535851D03*
X0469438Y0545694D03*
X0469438Y0557505D03*
X0469438Y0567347D03*
X0479280Y0567347D03*
X0479280Y0557505D03*
X0489123Y0557505D03*
X0489123Y0567347D03*
X0498965Y0567347D03*
X0498965Y0557505D03*
X0498965Y0579158D03*
X0489123Y0579158D03*
X0479280Y0579158D03*
X0469438Y0579158D03*
D16*
X0193060Y0153808D03*
X0193060Y0045776D03*
D17*
X0194359Y0066131D03*
X0194359Y0088572D03*
X0216800Y0088572D03*
X0216800Y0066131D03*
X0216800Y0111013D03*
X0216800Y0133454D03*
X0194359Y0133454D03*
X0194359Y0111013D03*
D18*
X0294871Y0052902D03*
X0412036Y0052902D03*
D19*
X0051246Y0221800D03*
X0044554Y0221800D03*
X0045146Y0506800D03*
X0038454Y0506800D03*
D20*
X0251800Y0471800D03*
D21*
X0207942Y0503217D03*
X0105580Y0503217D03*
X0263060Y0400855D03*
X0306367Y0400855D03*
X0345737Y0479595D03*
X0432351Y0495343D03*
X0444162Y0652824D03*
X0511091Y0652824D03*
X0204005Y0172509D03*
X0243375Y0137076D03*
X0310304Y0093769D03*
X0345737Y0125265D03*
X0420540Y0121328D03*
X0452036Y0093769D03*
X0507154Y0093769D03*
X0097706Y0172509D03*
M02*
