%
M48
M72
T01C0.01000
T02C0.01500
T03C0.02000
T04C0.02362
T05C0.03937
T06C0.04000
T07C0.06299
T08C0.07087
T09C0.11811
T10C0.12598
T11C0.17000
%
T01
X261800Y506800
X264300Y531800
T02
X431800Y604300
X431800Y616800
X431800Y626800
X431800Y639300
T03
X651800Y176800
X656800Y176800
X661800Y176800
X666800Y176800
T04
X138050Y91800
X81800Y156800
X230550Y171800
X316800Y226800
X316800Y246800
X231800Y346800
X215550Y329300
X219300Y395550
X206800Y454300
X295550Y463050
X216800Y550550
X166800Y591800
X224300Y631800
X311800Y626800
X331800Y624300
X383050Y581800
X416800Y444300
X424300Y444300
X429800Y400300
X429800Y390300
X545550Y361800
X586800Y361800
X586800Y406800
X586800Y451800
X586800Y496800
X573050Y544300
X553050Y604300
X661800Y494300
X644300Y341800
X613050Y265550
X536800Y251800
X563050Y156800
X593050Y153050
X543050Y101800
X481800Y115550
X435550Y178050
X409300Y111800
X371800Y91800
X366800Y96800
X361800Y101800
X356800Y106800
X348050Y9300
X281800Y10550
X238050Y25550
X59300Y511800
X44300Y516800
T05
X137469Y460658
X147312Y460658
X157154Y460658
X166997Y460658
X166997Y448847
X166997Y439005
X157154Y439005
X147312Y439005
X147312Y448847
X157154Y448847
X137469Y448847
X137469Y439005
X137469Y427194
X137469Y417351
X147312Y417351
X157154Y417351
X157154Y427194
X147312Y427194
X166997Y427194
X166997Y417351
X166997Y405540
X166997Y395698
X166997Y383887
X157154Y383887
X147312Y383887
X137469Y383887
X137469Y395698
X147312Y395698
X157154Y395698
X157154Y405540
X147312Y405540
X137469Y405540
X137469Y374044
X147312Y374044
X157154Y374044
X166997Y374044
X166997Y362233
X166997Y352391
X157154Y352391
X157154Y362233
X147312Y362233
X147312Y352391
X137469Y352391
X137469Y362233
X137469Y340580
X147312Y340580
X157154Y340580
X166997Y340580
X166997Y323257
X157154Y323257
X147312Y323257
X137469Y323257
X137469Y311446
X147312Y311446
X157154Y311446
X157154Y301603
X147312Y301603
X137469Y301603
X137469Y289792
X147312Y289792
X157154Y289792
X157154Y279950
X147312Y279950
X137469Y279950
X137469Y268139
X147312Y268139
X157154Y268139
X166997Y268139
X166997Y279950
X166997Y289792
X166997Y301603
X166997Y311446
X166997Y258296
X166997Y246485
X166997Y236643
X157154Y236643
X147312Y236643
X137469Y236643
X137469Y246485
X147312Y246485
X157154Y246485
X157154Y258296
X147312Y258296
X137469Y258296
X137469Y224831
X137469Y214989
X147312Y214989
X157154Y214989
X157154Y224831
X147312Y224831
X166997Y224831
X166997Y214989
X166997Y203178
X157154Y203178
X147312Y203178
X137469Y203178
X279738Y203065
X279738Y193223
X289580Y193223
X289580Y203065
X299423Y203065
X299423Y193223
X309265Y193223
X309265Y203065
X309265Y214876
X309265Y224719
X299423Y224719
X299423Y214876
X289580Y214876
X289580Y224719
X279738Y224719
X279738Y214876
X279738Y236530
X289580Y236530
X299423Y236530
X309265Y236530
X309265Y246372
X309265Y258183
X299423Y258183
X289580Y258183
X289580Y246372
X299423Y246372
X279738Y246372
X279738Y258183
X283320Y278538
X293320Y278538
X293320Y288538
X283320Y288538
X283320Y298538
X293320Y298538
X293320Y308538
X283320Y308538
X283320Y318538
X293320Y318538
X293320Y328538
X283320Y328538
X283320Y338538
X283320Y348538
X293320Y348538
X293320Y338538
X303320Y338538
X303320Y348538
X303320Y328538
X303320Y318538
X303320Y308538
X303320Y298538
X303320Y288538
X303320Y278538
X379069Y258187
X388912Y258187
X388912Y246376
X379069Y246376
X379069Y236534
X388912Y236534
X398754Y236534
X408597Y236534
X408597Y246376
X398754Y246376
X398754Y258187
X408597Y258187
X402652Y278542
X392652Y278542
X392652Y288542
X392652Y298542
X402652Y298542
X402652Y288542
X402652Y308542
X402652Y318542
X392652Y318542
X392652Y308542
X382652Y308542
X382652Y318542
X382652Y328542
X382652Y338542
X382652Y348542
X392652Y348542
X402652Y348542
X402652Y338542
X392652Y338542
X392652Y328542
X402652Y328542
X382652Y298542
X382652Y288542
X382652Y278542
X379069Y224723
X379069Y214880
X388912Y214880
X388912Y224723
X398754Y224723
X398754Y214880
X408597Y214880
X408597Y224723
X408597Y203069
X408597Y193227
X398754Y193227
X398754Y203069
X388912Y203069
X388912Y193227
X379069Y193227
X379069Y203069
X379069Y181416
X388912Y181416
X398754Y181416
X408597Y181416
X469438Y181520
X469438Y171678
X479280Y171678
X479280Y181520
X489123Y181520
X489123Y171678
X498965Y171678
X498965Y181520
X498965Y193331
X489123Y193331
X479280Y193331
X479280Y203174
X489123Y203174
X498965Y203174
X498965Y214985
X489123Y214985
X489123Y224828
X498965Y224828
X498965Y236639
X489123Y236639
X479280Y236639
X479280Y246481
X489123Y246481
X498965Y246481
X498965Y258292
X489123Y258292
X479280Y258292
X469438Y258292
X469438Y246481
X469438Y236639
X469438Y224828
X469438Y214985
X479280Y214985
X479280Y224828
X469438Y203174
X469438Y193331
X469438Y159867
X479280Y159867
X489123Y159867
X498965Y159867
X498965Y150024
X489123Y150024
X479280Y150024
X479280Y138213
X489123Y138213
X498965Y138213
X469438Y138213
X469438Y150024
X389162Y59123
X379162Y59123
X369162Y59123
X369162Y49123
X379162Y49123
X389162Y49123
X389162Y39123
X379162Y39123
X369162Y39123
X359162Y39123
X349162Y39123
X339162Y39123
X329162Y39123
X319162Y39123
X319162Y49123
X319162Y59123
X329162Y59123
X329162Y49123
X339162Y49123
X339162Y59123
X349162Y59123
X349162Y49123
X359162Y49123
X359162Y59123
X309265Y138105
X309265Y149916
X299423Y149916
X289580Y149916
X289580Y138105
X299423Y138105
X279738Y138105
X279738Y149916
X279738Y159758
X289580Y159758
X299423Y159758
X309265Y159758
X309265Y171569
X309265Y181412
X299423Y181412
X289580Y181412
X289580Y171569
X299423Y171569
X279738Y171569
X279738Y181412
X382652Y370038
X382652Y380038
X382652Y390038
X382652Y400038
X382652Y410038
X382652Y420038
X382652Y430038
X382652Y440038
X392652Y440038
X402652Y440038
X402652Y430038
X392652Y430038
X392652Y420038
X402652Y420038
X402652Y410038
X392652Y410038
X392652Y400038
X402652Y400038
X402652Y390038
X392652Y390038
X392652Y380038
X402652Y380038
X402652Y370038
X392652Y370038
X473020Y370143
X473020Y380143
X483020Y380143
X483020Y370143
X493020Y370143
X493020Y380143
X493020Y390143
X493020Y400143
X493020Y410143
X493020Y420143
X493020Y430143
X493020Y440143
X483020Y440143
X473020Y440143
X473020Y430143
X483020Y430143
X483020Y420143
X473020Y420143
X473020Y410143
X483020Y410143
X483020Y400143
X473020Y400143
X473020Y390143
X483020Y390143
X483020Y348646
X473020Y348646
X473020Y338646
X473020Y328646
X483020Y328646
X483020Y338646
X493020Y338646
X493020Y328646
X493020Y318646
X493020Y308646
X483020Y308646
X473020Y308646
X473020Y318646
X483020Y318646
X483020Y298646
X473020Y298646
X473020Y288646
X483020Y288646
X483020Y278646
X473020Y278646
X493020Y278646
X493020Y288646
X493020Y298646
X493020Y348646
X489123Y459080
X498965Y459080
X498965Y470891
X489123Y470891
X479280Y470891
X479280Y459080
X469438Y459080
X469438Y470891
X469438Y480733
X479280Y480733
X489123Y480733
X498965Y480733
X498965Y492544
X489123Y492544
X489123Y502387
X498965Y502387
X498965Y514198
X498965Y524040
X489123Y524040
X489123Y514198
X479280Y514198
X479280Y524040
X469438Y524040
X469438Y514198
X469438Y502387
X469438Y492544
X479280Y492544
X479280Y502387
X479280Y535851
X479280Y545694
X489123Y545694
X498965Y545694
X498965Y535851
X489123Y535851
X469438Y535851
X469438Y545694
X469438Y557505
X469438Y567347
X479280Y567347
X479280Y557505
X489123Y557505
X489123Y567347
X498965Y567347
X498965Y557505
X498965Y579158
X489123Y579158
X479280Y579158
X469438Y579158
T06
X251800Y471800
T07
X207942Y503217
X105580Y503217
X263060Y400855
X306367Y400855
X345737Y479595
X432351Y495343
X444162Y652824
X511091Y652824
X204005Y172509
X243375Y137076
X310304Y93769
X345737Y125265
X420540Y121328
X452036Y93769
X507154Y93769
X97706Y172509
T08
X194359Y133454
X216800Y133454
X216800Y111013
X194359Y111013
X194359Y88572
X216800Y88572
X216800Y66131
X194359Y66131
T09
X193060Y45776
X193060Y153808
T10
X294871Y52902
X412036Y52902
T11
X541800Y141800
X541800Y541800
X141800Y541800
X141800Y141800
M30
