%
M48
M72
T01C0.0200
T02C0.0400
T03C0.0550
T04C0.1300
%
T01
X3225Y1625
X5725Y6125
X6725Y8725
X9625Y8725
X3825Y8725
X10325Y1625
T02
X8125Y1525
X7125Y1525
X7125Y2525
X8125Y2525
X6125Y2525
X5125Y2525
X5125Y1525
X6125Y1525
X6125Y10625
X5125Y10625
X5125Y11625
X6125Y11625
X7125Y11625
X8125Y11625
X8125Y10625
X7125Y10625
T03
X10925Y9025
X12725Y9025
X12725Y7125
X10925Y7125
X10925Y5225
X12725Y5225
X12725Y3325
X10925Y3325
X2725Y3325
X925Y3325
X925Y5225
X2725Y5225
X2725Y7125
X925Y7125
X925Y9025
X2725Y9025
T04
X1225Y1225
X1225Y11225
X12475Y11225
X12475Y1225
M30
