G75*
%MOIN*%
%OFA0B0*%
%FSLAX25Y25*%
%IPPOS*%
%LPD*%
%AMOC8*
5,1,8,0,0,1.08239X$1,22.5*
%
%ADD10R,0.08661X0.02362*%
%ADD11R,0.04331X0.03937*%
%ADD12OC8,0.10000*%
%ADD13R,0.03150X0.03150*%
%ADD14R,0.03937X0.04331*%
%ADD15R,0.03937X0.10827*%
%ADD16OC8,0.08268*%
%ADD17C,0.01000*%
%ADD18C,0.03600*%
%ADD19C,0.01600*%
%ADD20C,0.02400*%
%ADD21C,0.01200*%
D10*
X0049140Y0043750D03*
X0049140Y0048750D03*
X0049140Y0053750D03*
X0049140Y0058750D03*
X0049140Y0063750D03*
X0049140Y0068750D03*
X0049140Y0073750D03*
X0049140Y0078750D03*
X0049140Y0083750D03*
X0049140Y0088750D03*
X0085360Y0088750D03*
X0085360Y0083750D03*
X0085360Y0078750D03*
X0085360Y0073750D03*
X0085360Y0068750D03*
X0085360Y0063750D03*
X0085360Y0058750D03*
X0085360Y0053750D03*
X0085360Y0048750D03*
X0085360Y0043750D03*
D11*
X0091904Y0033250D03*
X0098596Y0033250D03*
X0098596Y0025250D03*
X0091904Y0025250D03*
D12*
X0109250Y0033250D03*
X0127250Y0033250D03*
X0127250Y0052250D03*
X0109250Y0052250D03*
X0109250Y0071250D03*
X0127250Y0071250D03*
X0127250Y0090250D03*
X0109250Y0090250D03*
X0027250Y0090250D03*
X0009250Y0090250D03*
X0009250Y0071250D03*
X0027250Y0071250D03*
X0027250Y0052250D03*
X0009250Y0052250D03*
X0009250Y0033250D03*
X0027250Y0033250D03*
D13*
X0039250Y0022203D03*
X0039250Y0016297D03*
D14*
X0039250Y0027904D03*
X0039250Y0034596D03*
D15*
X0055439Y0030715D03*
X0063313Y0030715D03*
X0071187Y0030715D03*
X0079061Y0030715D03*
X0079061Y0013785D03*
X0071187Y0013785D03*
X0063313Y0013785D03*
X0055439Y0013785D03*
D16*
X0056423Y0110250D03*
X0078077Y0110250D03*
D17*
X0016921Y0004160D02*
X0015795Y0003750D01*
X0121205Y0003750D01*
X0120079Y0004160D01*
X0120079Y0004160D01*
X0117594Y0006245D01*
X0117594Y0006245D01*
X0115971Y0009055D01*
X0115971Y0009055D01*
X0115408Y0012250D01*
X0115408Y0012250D01*
X0115971Y0015445D01*
X0115971Y0015445D01*
X0117594Y0018255D01*
X0117594Y0018255D01*
X0120079Y0020340D01*
X0120079Y0020340D01*
X0123128Y0021450D01*
X0126372Y0021450D01*
X0129421Y0020340D01*
X0129421Y0020340D01*
X0131906Y0018255D01*
X0131906Y0018255D01*
X0133250Y0015928D01*
X0133250Y0030058D01*
X0129942Y0026750D01*
X0124558Y0026750D01*
X0120750Y0030558D01*
X0120750Y0035942D01*
X0124558Y0039750D01*
X0129942Y0039750D01*
X0133250Y0036442D01*
X0133250Y0049058D01*
X0129942Y0045750D01*
X0124558Y0045750D01*
X0120750Y0049558D01*
X0120750Y0054942D01*
X0124558Y0058750D01*
X0129942Y0058750D01*
X0133250Y0055442D01*
X0133250Y0068058D01*
X0129942Y0064750D01*
X0124558Y0064750D01*
X0120750Y0068558D01*
X0120750Y0073942D01*
X0124558Y0077750D01*
X0129942Y0077750D01*
X0133250Y0074442D01*
X0133250Y0087058D01*
X0129942Y0083750D01*
X0124558Y0083750D01*
X0120750Y0087558D01*
X0120750Y0092942D01*
X0124558Y0096750D01*
X0129942Y0096750D01*
X0133250Y0093442D01*
X0133250Y0108572D01*
X0131906Y0106245D01*
X0131906Y0106245D01*
X0129421Y0104160D01*
X0129421Y0104160D01*
X0126372Y0103050D01*
X0125537Y0103050D01*
X0123128Y0103050D01*
X0120079Y0104160D01*
X0120079Y0104160D01*
X0117594Y0106245D01*
X0117594Y0106245D01*
X0115971Y0109055D01*
X0115971Y0109055D01*
X0115408Y0112250D01*
X0115408Y0112250D01*
X0115971Y0115445D01*
X0115971Y0115445D01*
X0117594Y0118255D01*
X0117594Y0118255D01*
X0119971Y0120250D01*
X0017029Y0120250D01*
X0019406Y0118255D01*
X0019406Y0118255D01*
X0021029Y0115445D01*
X0021029Y0115445D01*
X0021592Y0112250D01*
X0021592Y0112250D01*
X0021029Y0109055D01*
X0021029Y0109055D01*
X0019406Y0106245D01*
X0019406Y0106245D01*
X0016921Y0104160D01*
X0016921Y0104160D01*
X0013872Y0103050D01*
X0010628Y0103050D01*
X0007579Y0104160D01*
X0007579Y0104160D01*
X0005094Y0106245D01*
X0004250Y0107706D01*
X0004250Y0094442D01*
X0006558Y0096750D01*
X0011942Y0096750D01*
X0015750Y0092942D01*
X0015750Y0087558D01*
X0011942Y0083750D01*
X0006558Y0083750D01*
X0004250Y0086058D01*
X0004250Y0075442D01*
X0006558Y0077750D01*
X0011942Y0077750D01*
X0015750Y0073942D01*
X0015750Y0068558D01*
X0011942Y0064750D01*
X0006558Y0064750D01*
X0004250Y0067058D01*
X0004250Y0056442D01*
X0006558Y0058750D01*
X0011942Y0058750D01*
X0015750Y0054942D01*
X0015750Y0049558D01*
X0011942Y0045750D01*
X0006558Y0045750D01*
X0004250Y0048058D01*
X0004250Y0037442D01*
X0006558Y0039750D01*
X0011942Y0039750D01*
X0015750Y0035942D01*
X0015750Y0030558D01*
X0011942Y0026750D01*
X0006558Y0026750D01*
X0004250Y0029058D01*
X0004250Y0016794D01*
X0005094Y0018255D01*
X0005094Y0018255D01*
X0007579Y0020340D01*
X0007579Y0020340D01*
X0010628Y0021450D01*
X0013872Y0021450D01*
X0016921Y0020340D01*
X0016921Y0020340D01*
X0019406Y0018255D01*
X0019406Y0018255D01*
X0021029Y0015445D01*
X0021029Y0015445D01*
X0021592Y0012250D01*
X0021592Y0012250D01*
X0021029Y0009055D01*
X0021029Y0009055D01*
X0019406Y0006245D01*
X0019406Y0006245D01*
X0016921Y0004160D01*
X0016921Y0004160D01*
X0017023Y0004246D02*
X0074002Y0004246D01*
X0074297Y0003950D02*
X0083203Y0003950D01*
X0092856Y0013604D01*
X0094204Y0014951D01*
X0094204Y0021781D01*
X0094690Y0021781D01*
X0095250Y0022341D01*
X0095510Y0022081D01*
X0095852Y0021884D01*
X0096234Y0021781D01*
X0098112Y0021781D01*
X0098112Y0024766D01*
X0099081Y0024766D01*
X0099081Y0025734D01*
X0102262Y0025734D01*
X0102262Y0027416D01*
X0102160Y0027797D01*
X0101962Y0028140D01*
X0101683Y0028419D01*
X0101341Y0028616D01*
X0100959Y0028718D01*
X0099081Y0028718D01*
X0099081Y0025734D01*
X0098112Y0025734D01*
X0098112Y0028718D01*
X0096234Y0028718D01*
X0095852Y0028616D01*
X0095510Y0028419D01*
X0095250Y0028159D01*
X0094690Y0028718D01*
X0094204Y0028718D01*
X0094204Y0029781D01*
X0094690Y0029781D01*
X0095250Y0030341D01*
X0095510Y0030081D01*
X0095852Y0029884D01*
X0096234Y0029781D01*
X0098112Y0029781D01*
X0098112Y0032766D01*
X0099081Y0032766D01*
X0099081Y0033734D01*
X0102262Y0033734D01*
X0102262Y0035416D01*
X0102160Y0035797D01*
X0101962Y0036140D01*
X0101683Y0036419D01*
X0101341Y0036616D01*
X0100959Y0036718D01*
X0099081Y0036718D01*
X0099081Y0033734D01*
X0098112Y0033734D01*
X0098112Y0036718D01*
X0096234Y0036718D01*
X0095852Y0036616D01*
X0095510Y0036419D01*
X0095250Y0036159D01*
X0094690Y0036718D01*
X0094550Y0036718D01*
X0094550Y0047203D01*
X0093203Y0048550D01*
X0090703Y0051050D01*
X0090693Y0051050D01*
X0090493Y0051250D01*
X0091191Y0051948D01*
X0091191Y0055552D01*
X0090693Y0056050D01*
X0093632Y0056050D01*
X0097550Y0052132D01*
X0097550Y0041713D01*
X0097961Y0040721D01*
X0102750Y0035932D01*
X0102750Y0030558D01*
X0106558Y0026750D01*
X0111942Y0026750D01*
X0115750Y0030558D01*
X0115750Y0035942D01*
X0111942Y0039750D01*
X0106568Y0039750D01*
X0102950Y0043368D01*
X0102950Y0049358D01*
X0106558Y0045750D01*
X0111942Y0045750D01*
X0115750Y0049558D01*
X0115750Y0054942D01*
X0111942Y0058750D01*
X0106568Y0058750D01*
X0099279Y0066039D01*
X0099253Y0066050D01*
X0105258Y0066050D01*
X0106558Y0064750D01*
X0111942Y0064750D01*
X0115750Y0068558D01*
X0115750Y0073942D01*
X0111942Y0077750D01*
X0106558Y0077750D01*
X0102750Y0073942D01*
X0102750Y0071450D01*
X0099253Y0071450D01*
X0099279Y0071461D01*
X0110779Y0082961D01*
X0111539Y0083721D01*
X0111551Y0083750D01*
X0111942Y0083750D01*
X0115750Y0087558D01*
X0115750Y0092942D01*
X0111942Y0096750D01*
X0106558Y0096750D01*
X0102750Y0092942D01*
X0102750Y0087558D01*
X0105245Y0085063D01*
X0096632Y0076450D01*
X0090693Y0076450D01*
X0091191Y0076948D01*
X0091191Y0080552D01*
X0090493Y0081250D01*
X0091191Y0081948D01*
X0091191Y0085552D01*
X0090462Y0086282D01*
X0090612Y0086369D01*
X0090891Y0086648D01*
X0091089Y0086990D01*
X0091191Y0087371D01*
X0091191Y0088659D01*
X0085451Y0088659D01*
X0085451Y0088841D01*
X0085270Y0088841D01*
X0085270Y0091431D01*
X0080832Y0091431D01*
X0080451Y0091329D01*
X0080109Y0091131D01*
X0079829Y0090852D01*
X0079632Y0090510D01*
X0079530Y0090129D01*
X0079530Y0088841D01*
X0085270Y0088841D01*
X0085270Y0088659D01*
X0079530Y0088659D01*
X0079530Y0087371D01*
X0079632Y0086990D01*
X0079829Y0086648D01*
X0080109Y0086369D01*
X0080259Y0086282D01*
X0080027Y0086050D01*
X0072797Y0086050D01*
X0069297Y0082550D01*
X0067950Y0081203D01*
X0067950Y0038297D01*
X0068619Y0037628D01*
X0068597Y0037628D01*
X0067719Y0036749D01*
X0067719Y0024680D01*
X0068597Y0023801D01*
X0070930Y0023801D01*
X0070656Y0023139D01*
X0070656Y0021361D01*
X0070930Y0020699D01*
X0068597Y0020699D01*
X0067719Y0019820D01*
X0067719Y0007751D01*
X0068597Y0006872D01*
X0071375Y0006872D01*
X0072950Y0005297D01*
X0074297Y0003950D01*
X0073003Y0005244D02*
X0018213Y0005244D01*
X0019403Y0006243D02*
X0072005Y0006243D01*
X0068228Y0007241D02*
X0066272Y0007241D01*
X0066203Y0007172D02*
X0066482Y0007451D01*
X0066679Y0007793D01*
X0066781Y0008175D01*
X0066781Y0013301D01*
X0063797Y0013301D01*
X0063797Y0006872D01*
X0065479Y0006872D01*
X0065860Y0006974D01*
X0066203Y0007172D01*
X0066781Y0008240D02*
X0067719Y0008240D01*
X0067719Y0009238D02*
X0066781Y0009238D01*
X0066781Y0010237D02*
X0067719Y0010237D01*
X0067719Y0011235D02*
X0066781Y0011235D01*
X0066781Y0012234D02*
X0067719Y0012234D01*
X0067719Y0013232D02*
X0066781Y0013232D01*
X0066781Y0014270D02*
X0066781Y0019396D01*
X0066679Y0019778D01*
X0066482Y0020120D01*
X0066203Y0020399D01*
X0065860Y0020597D01*
X0065479Y0020699D01*
X0063797Y0020699D01*
X0063797Y0014270D01*
X0062829Y0014270D01*
X0062829Y0019383D01*
X0063164Y0019719D01*
X0063844Y0021361D01*
X0063844Y0023139D01*
X0063570Y0023801D01*
X0065903Y0023801D01*
X0066781Y0024680D01*
X0066781Y0036749D01*
X0065903Y0037628D01*
X0065881Y0037628D01*
X0066550Y0038297D01*
X0066550Y0081203D01*
X0065203Y0082550D01*
X0061703Y0086050D01*
X0054473Y0086050D01*
X0054241Y0086282D01*
X0054391Y0086369D01*
X0054671Y0086648D01*
X0054868Y0086990D01*
X0054970Y0087371D01*
X0054970Y0088659D01*
X0049230Y0088659D01*
X0049230Y0088841D01*
X0049049Y0088841D01*
X0049049Y0091431D01*
X0044612Y0091431D01*
X0044230Y0091329D01*
X0043888Y0091131D01*
X0043609Y0090852D01*
X0043411Y0090510D01*
X0043309Y0090129D01*
X0043309Y0088841D01*
X0049049Y0088841D01*
X0049049Y0088659D01*
X0043309Y0088659D01*
X0043309Y0087371D01*
X0043411Y0086990D01*
X0043609Y0086648D01*
X0043888Y0086369D01*
X0044038Y0086282D01*
X0043309Y0085552D01*
X0043309Y0081948D01*
X0044007Y0081250D01*
X0043309Y0080552D01*
X0043309Y0076948D01*
X0043807Y0076450D01*
X0039868Y0076450D01*
X0031255Y0085063D01*
X0033750Y0087558D01*
X0033750Y0092942D01*
X0029942Y0096750D01*
X0024558Y0096750D01*
X0020750Y0092942D01*
X0020750Y0087558D01*
X0024558Y0083750D01*
X0024949Y0083750D01*
X0024961Y0083721D01*
X0037221Y0071461D01*
X0037247Y0071450D01*
X0033750Y0071450D01*
X0033750Y0073942D01*
X0029942Y0077750D01*
X0024558Y0077750D01*
X0020750Y0073942D01*
X0020750Y0068558D01*
X0024558Y0064750D01*
X0029942Y0064750D01*
X0031242Y0066050D01*
X0037247Y0066050D01*
X0037221Y0066039D01*
X0029932Y0058750D01*
X0024558Y0058750D01*
X0020750Y0054942D01*
X0020750Y0049558D01*
X0024558Y0045750D01*
X0029942Y0045750D01*
X0033550Y0049358D01*
X0033550Y0043368D01*
X0029932Y0039750D01*
X0024558Y0039750D01*
X0020750Y0035942D01*
X0020750Y0030558D01*
X0024558Y0026750D01*
X0029942Y0026750D01*
X0033750Y0030558D01*
X0033750Y0035932D01*
X0037150Y0039332D01*
X0037150Y0038262D01*
X0036660Y0038262D01*
X0035781Y0037383D01*
X0035781Y0031810D01*
X0036341Y0031250D01*
X0035781Y0030690D01*
X0035781Y0025117D01*
X0036337Y0024561D01*
X0036175Y0024399D01*
X0036175Y0020007D01*
X0036979Y0019202D01*
X0036754Y0019072D01*
X0036475Y0018793D01*
X0036277Y0018451D01*
X0036175Y0018070D01*
X0036175Y0016585D01*
X0038963Y0016585D01*
X0038963Y0016010D01*
X0039537Y0016010D01*
X0039537Y0013222D01*
X0041022Y0013222D01*
X0041404Y0013325D01*
X0041746Y0013522D01*
X0042025Y0013801D01*
X0042223Y0014143D01*
X0042325Y0014525D01*
X0042325Y0016010D01*
X0039537Y0016010D01*
X0039537Y0016585D01*
X0042325Y0016585D01*
X0042325Y0018070D01*
X0042223Y0018451D01*
X0042025Y0018793D01*
X0041746Y0019072D01*
X0041521Y0019202D01*
X0042325Y0020007D01*
X0042325Y0024399D01*
X0042163Y0024561D01*
X0042718Y0025117D01*
X0042718Y0030690D01*
X0042159Y0031250D01*
X0042718Y0031810D01*
X0042718Y0037383D01*
X0041840Y0038262D01*
X0041350Y0038262D01*
X0041350Y0051380D01*
X0041620Y0051650D01*
X0043607Y0051650D01*
X0044038Y0051218D01*
X0043888Y0051131D01*
X0043609Y0050852D01*
X0043411Y0050510D01*
X0043309Y0050129D01*
X0043309Y0048841D01*
X0049049Y0048841D01*
X0049049Y0048659D01*
X0043309Y0048659D01*
X0043309Y0047371D01*
X0043411Y0046990D01*
X0043609Y0046648D01*
X0043888Y0046369D01*
X0044038Y0046282D01*
X0043309Y0045552D01*
X0043309Y0041948D01*
X0044188Y0041069D01*
X0054092Y0041069D01*
X0054970Y0041948D01*
X0054970Y0045552D01*
X0054241Y0046282D01*
X0054391Y0046369D01*
X0054671Y0046648D01*
X0054868Y0046990D01*
X0054970Y0047371D01*
X0054970Y0048659D01*
X0049230Y0048659D01*
X0049230Y0048841D01*
X0054970Y0048841D01*
X0054970Y0050129D01*
X0054868Y0050510D01*
X0054671Y0050852D01*
X0054391Y0051131D01*
X0054241Y0051218D01*
X0054970Y0051948D01*
X0054970Y0055552D01*
X0054273Y0056250D01*
X0054970Y0056948D01*
X0054970Y0060552D01*
X0054273Y0061250D01*
X0054970Y0061948D01*
X0054970Y0065552D01*
X0054273Y0066250D01*
X0054970Y0066948D01*
X0054970Y0070552D01*
X0054273Y0071250D01*
X0054970Y0071948D01*
X0054970Y0075552D01*
X0054273Y0076250D01*
X0054473Y0076450D01*
X0057797Y0076450D01*
X0058950Y0075297D01*
X0058950Y0041203D01*
X0055375Y0037628D01*
X0052849Y0037628D01*
X0051970Y0036749D01*
X0051970Y0024680D01*
X0052849Y0023801D01*
X0055182Y0023801D01*
X0054907Y0023139D01*
X0054907Y0021361D01*
X0055588Y0019719D01*
X0055923Y0019383D01*
X0055923Y0014270D01*
X0054955Y0014270D01*
X0054955Y0020699D01*
X0053273Y0020699D01*
X0052891Y0020597D01*
X0052549Y0020399D01*
X0052270Y0020120D01*
X0052073Y0019778D01*
X0051970Y0019396D01*
X0051970Y0014270D01*
X0054955Y0014270D01*
X0054955Y0013301D01*
X0055923Y0013301D01*
X0055923Y0006872D01*
X0057605Y0006872D01*
X0057986Y0006974D01*
X0058328Y0007172D01*
X0058608Y0007451D01*
X0058805Y0007793D01*
X0058907Y0008175D01*
X0058907Y0013301D01*
X0055923Y0013301D01*
X0055923Y0014270D01*
X0058907Y0014270D01*
X0058907Y0017781D01*
X0059844Y0017781D01*
X0059844Y0014270D01*
X0062829Y0014270D01*
X0062829Y0013301D01*
X0063797Y0013301D01*
X0063797Y0014270D01*
X0066781Y0014270D01*
X0067719Y0014231D02*
X0063797Y0014231D01*
X0062829Y0014231D02*
X0055923Y0014231D01*
X0054955Y0014231D02*
X0042246Y0014231D01*
X0042325Y0015229D02*
X0051970Y0015229D01*
X0051970Y0016228D02*
X0039537Y0016228D01*
X0038963Y0016228D02*
X0020577Y0016228D01*
X0021067Y0015229D02*
X0036175Y0015229D01*
X0036175Y0014525D02*
X0036175Y0016010D01*
X0038963Y0016010D01*
X0038963Y0013222D01*
X0037478Y0013222D01*
X0037096Y0013325D01*
X0036754Y0013522D01*
X0036475Y0013801D01*
X0036277Y0014143D01*
X0036175Y0014525D01*
X0036254Y0014231D02*
X0021243Y0014231D01*
X0021419Y0013232D02*
X0037442Y0013232D01*
X0038963Y0013232D02*
X0039537Y0013232D01*
X0039537Y0014231D02*
X0038963Y0014231D01*
X0038963Y0015229D02*
X0039537Y0015229D01*
X0041058Y0013232D02*
X0051970Y0013232D01*
X0051970Y0013301D02*
X0051970Y0008175D01*
X0052073Y0007793D01*
X0052270Y0007451D01*
X0052549Y0007172D01*
X0052891Y0006974D01*
X0053273Y0006872D01*
X0054955Y0006872D01*
X0054955Y0013301D01*
X0051970Y0013301D01*
X0051970Y0012234D02*
X0021589Y0012234D01*
X0021413Y0011235D02*
X0051970Y0011235D01*
X0051970Y0010237D02*
X0021237Y0010237D01*
X0021061Y0009238D02*
X0051970Y0009238D01*
X0051970Y0008240D02*
X0020558Y0008240D01*
X0019981Y0007241D02*
X0052480Y0007241D01*
X0054955Y0007241D02*
X0055923Y0007241D01*
X0055923Y0008240D02*
X0054955Y0008240D01*
X0054955Y0009238D02*
X0055923Y0009238D01*
X0055923Y0010237D02*
X0054955Y0010237D01*
X0054955Y0011235D02*
X0055923Y0011235D01*
X0055923Y0012234D02*
X0054955Y0012234D01*
X0054955Y0013232D02*
X0055923Y0013232D01*
X0055923Y0015229D02*
X0054955Y0015229D01*
X0054955Y0016228D02*
X0055923Y0016228D01*
X0055923Y0017226D02*
X0054955Y0017226D01*
X0054955Y0018225D02*
X0055923Y0018225D01*
X0055923Y0019223D02*
X0054955Y0019223D01*
X0054955Y0020222D02*
X0055379Y0020222D01*
X0054966Y0021220D02*
X0042325Y0021220D01*
X0042325Y0020222D02*
X0052372Y0020222D01*
X0051970Y0019223D02*
X0041541Y0019223D01*
X0042283Y0018225D02*
X0051970Y0018225D01*
X0051970Y0017226D02*
X0042325Y0017226D01*
X0042325Y0022219D02*
X0054907Y0022219D01*
X0054940Y0023217D02*
X0042325Y0023217D01*
X0042325Y0024216D02*
X0052435Y0024216D01*
X0051970Y0025214D02*
X0042718Y0025214D01*
X0042718Y0026213D02*
X0051970Y0026213D01*
X0051970Y0027211D02*
X0042718Y0027211D01*
X0042718Y0028210D02*
X0051970Y0028210D01*
X0051970Y0029208D02*
X0042718Y0029208D01*
X0042718Y0030207D02*
X0051970Y0030207D01*
X0051970Y0031205D02*
X0042203Y0031205D01*
X0042718Y0032204D02*
X0051970Y0032204D01*
X0051970Y0033202D02*
X0042718Y0033202D01*
X0042718Y0034201D02*
X0051970Y0034201D01*
X0051970Y0035199D02*
X0042718Y0035199D01*
X0042718Y0036198D02*
X0051970Y0036198D01*
X0052418Y0037196D02*
X0042718Y0037196D01*
X0041907Y0038195D02*
X0055942Y0038195D01*
X0056941Y0039193D02*
X0041350Y0039193D01*
X0041350Y0040192D02*
X0057939Y0040192D01*
X0058938Y0041190D02*
X0054213Y0041190D01*
X0054970Y0042189D02*
X0058950Y0042189D01*
X0058950Y0043187D02*
X0054970Y0043187D01*
X0054970Y0044186D02*
X0058950Y0044186D01*
X0058950Y0045184D02*
X0054970Y0045184D01*
X0054340Y0046183D02*
X0058950Y0046183D01*
X0058950Y0047182D02*
X0054920Y0047182D01*
X0054970Y0048180D02*
X0058950Y0048180D01*
X0058950Y0049179D02*
X0054970Y0049179D01*
X0054957Y0050177D02*
X0058950Y0050177D01*
X0058950Y0051176D02*
X0054315Y0051176D01*
X0054970Y0052174D02*
X0058950Y0052174D01*
X0058950Y0053173D02*
X0054970Y0053173D01*
X0054970Y0054171D02*
X0058950Y0054171D01*
X0058950Y0055170D02*
X0054970Y0055170D01*
X0054355Y0056168D02*
X0058950Y0056168D01*
X0058950Y0057167D02*
X0054970Y0057167D01*
X0054970Y0058165D02*
X0058950Y0058165D01*
X0058950Y0059164D02*
X0054970Y0059164D01*
X0054970Y0060162D02*
X0058950Y0060162D01*
X0058950Y0061161D02*
X0054362Y0061161D01*
X0054970Y0062159D02*
X0058950Y0062159D01*
X0058950Y0063158D02*
X0054970Y0063158D01*
X0054970Y0064156D02*
X0058950Y0064156D01*
X0058950Y0065155D02*
X0054970Y0065155D01*
X0054370Y0066153D02*
X0058950Y0066153D01*
X0058950Y0067152D02*
X0054970Y0067152D01*
X0054970Y0068150D02*
X0058950Y0068150D01*
X0058950Y0069149D02*
X0054970Y0069149D01*
X0054970Y0070147D02*
X0058950Y0070147D01*
X0058950Y0071146D02*
X0054377Y0071146D01*
X0054970Y0072144D02*
X0058950Y0072144D01*
X0058950Y0073143D02*
X0054970Y0073143D01*
X0054970Y0074141D02*
X0058950Y0074141D01*
X0058950Y0075140D02*
X0054970Y0075140D01*
X0054385Y0076138D02*
X0058109Y0076138D01*
X0064625Y0083128D02*
X0069875Y0083128D01*
X0068877Y0082129D02*
X0065623Y0082129D01*
X0066550Y0081131D02*
X0067950Y0081131D01*
X0067950Y0080132D02*
X0066550Y0080132D01*
X0066550Y0079134D02*
X0067950Y0079134D01*
X0067950Y0078135D02*
X0066550Y0078135D01*
X0066550Y0077137D02*
X0067950Y0077137D01*
X0067950Y0076138D02*
X0066550Y0076138D01*
X0066550Y0075140D02*
X0067950Y0075140D01*
X0067950Y0074141D02*
X0066550Y0074141D01*
X0066550Y0073143D02*
X0067950Y0073143D01*
X0067950Y0072144D02*
X0066550Y0072144D01*
X0066550Y0071146D02*
X0067950Y0071146D01*
X0067950Y0070147D02*
X0066550Y0070147D01*
X0066550Y0069149D02*
X0067950Y0069149D01*
X0067950Y0068150D02*
X0066550Y0068150D01*
X0066550Y0067152D02*
X0067950Y0067152D01*
X0067950Y0066153D02*
X0066550Y0066153D01*
X0066550Y0065155D02*
X0067950Y0065155D01*
X0067950Y0064156D02*
X0066550Y0064156D01*
X0066550Y0063158D02*
X0067950Y0063158D01*
X0067950Y0062159D02*
X0066550Y0062159D01*
X0066550Y0061161D02*
X0067950Y0061161D01*
X0067950Y0060162D02*
X0066550Y0060162D01*
X0066550Y0059164D02*
X0067950Y0059164D01*
X0067950Y0058165D02*
X0066550Y0058165D01*
X0066550Y0057167D02*
X0067950Y0057167D01*
X0067950Y0056168D02*
X0066550Y0056168D01*
X0066550Y0055170D02*
X0067950Y0055170D01*
X0067950Y0054171D02*
X0066550Y0054171D01*
X0066550Y0053173D02*
X0067950Y0053173D01*
X0067950Y0052174D02*
X0066550Y0052174D01*
X0066550Y0051176D02*
X0067950Y0051176D01*
X0067950Y0050177D02*
X0066550Y0050177D01*
X0066550Y0049179D02*
X0067950Y0049179D01*
X0067950Y0048180D02*
X0066550Y0048180D01*
X0066550Y0047182D02*
X0067950Y0047182D01*
X0067950Y0046183D02*
X0066550Y0046183D01*
X0066550Y0045184D02*
X0067950Y0045184D01*
X0067950Y0044186D02*
X0066550Y0044186D01*
X0066550Y0043187D02*
X0067950Y0043187D01*
X0067950Y0042189D02*
X0066550Y0042189D01*
X0066550Y0041190D02*
X0067950Y0041190D01*
X0067950Y0040192D02*
X0066550Y0040192D01*
X0066550Y0039193D02*
X0067950Y0039193D01*
X0068052Y0038195D02*
X0066448Y0038195D01*
X0066334Y0037196D02*
X0068166Y0037196D01*
X0067719Y0036198D02*
X0066781Y0036198D01*
X0066781Y0035199D02*
X0067719Y0035199D01*
X0067719Y0034201D02*
X0066781Y0034201D01*
X0066781Y0033202D02*
X0067719Y0033202D01*
X0067719Y0032204D02*
X0066781Y0032204D01*
X0066781Y0031205D02*
X0067719Y0031205D01*
X0067719Y0030207D02*
X0066781Y0030207D01*
X0066781Y0029208D02*
X0067719Y0029208D01*
X0067719Y0028210D02*
X0066781Y0028210D01*
X0066781Y0027211D02*
X0067719Y0027211D01*
X0067719Y0026213D02*
X0066781Y0026213D01*
X0066781Y0025214D02*
X0067719Y0025214D01*
X0068183Y0024216D02*
X0066317Y0024216D01*
X0063812Y0023217D02*
X0070688Y0023217D01*
X0070656Y0022219D02*
X0063844Y0022219D01*
X0063786Y0021220D02*
X0070714Y0021220D01*
X0068120Y0020222D02*
X0066380Y0020222D01*
X0066781Y0019223D02*
X0067719Y0019223D01*
X0067719Y0018225D02*
X0066781Y0018225D01*
X0066781Y0017226D02*
X0067719Y0017226D01*
X0067719Y0016228D02*
X0066781Y0016228D01*
X0066781Y0015229D02*
X0067719Y0015229D01*
X0063797Y0015229D02*
X0062829Y0015229D01*
X0062829Y0016228D02*
X0063797Y0016228D01*
X0063797Y0017226D02*
X0062829Y0017226D01*
X0062829Y0018225D02*
X0063797Y0018225D01*
X0063797Y0019223D02*
X0062829Y0019223D01*
X0063373Y0020222D02*
X0063797Y0020222D01*
X0059844Y0017226D02*
X0058907Y0017226D01*
X0058907Y0016228D02*
X0059844Y0016228D01*
X0059844Y0015229D02*
X0058907Y0015229D01*
X0058907Y0013232D02*
X0059844Y0013232D01*
X0059844Y0013301D02*
X0059844Y0008175D01*
X0059947Y0007793D01*
X0060144Y0007451D01*
X0060423Y0007172D01*
X0060766Y0006974D01*
X0061147Y0006872D01*
X0062829Y0006872D01*
X0062829Y0013301D01*
X0059844Y0013301D01*
X0059844Y0012234D02*
X0058907Y0012234D01*
X0058907Y0011235D02*
X0059844Y0011235D01*
X0059844Y0010237D02*
X0058907Y0010237D01*
X0058907Y0009238D02*
X0059844Y0009238D01*
X0059844Y0008240D02*
X0058907Y0008240D01*
X0058398Y0007241D02*
X0060354Y0007241D01*
X0062829Y0007241D02*
X0063797Y0007241D01*
X0063797Y0008240D02*
X0062829Y0008240D01*
X0062829Y0009238D02*
X0063797Y0009238D01*
X0063797Y0010237D02*
X0062829Y0010237D01*
X0062829Y0011235D02*
X0063797Y0011235D01*
X0063797Y0012234D02*
X0062829Y0012234D01*
X0062829Y0013232D02*
X0063797Y0013232D01*
X0083498Y0004246D02*
X0119977Y0004246D01*
X0118787Y0005244D02*
X0084497Y0005244D01*
X0085495Y0006243D02*
X0117597Y0006243D01*
X0117019Y0007241D02*
X0086494Y0007241D01*
X0087492Y0008240D02*
X0116442Y0008240D01*
X0115939Y0009238D02*
X0088491Y0009238D01*
X0089489Y0010237D02*
X0115763Y0010237D01*
X0115587Y0011235D02*
X0090488Y0011235D01*
X0091486Y0012234D02*
X0115411Y0012234D01*
X0115581Y0013232D02*
X0092485Y0013232D01*
X0093483Y0014231D02*
X0115757Y0014231D01*
X0115933Y0015229D02*
X0094204Y0015229D01*
X0094204Y0016228D02*
X0116423Y0016228D01*
X0117000Y0017226D02*
X0094204Y0017226D01*
X0094204Y0018225D02*
X0117576Y0018225D01*
X0117594Y0018255D02*
X0117594Y0018255D01*
X0118748Y0019223D02*
X0094204Y0019223D01*
X0094204Y0020222D02*
X0119938Y0020222D01*
X0122497Y0021220D02*
X0094204Y0021220D01*
X0095127Y0022219D02*
X0095373Y0022219D01*
X0098112Y0022219D02*
X0099081Y0022219D01*
X0099081Y0021781D02*
X0100959Y0021781D01*
X0101341Y0021884D01*
X0101683Y0022081D01*
X0101962Y0022360D01*
X0102160Y0022703D01*
X0102262Y0023084D01*
X0102262Y0024766D01*
X0099081Y0024766D01*
X0099081Y0021781D01*
X0099081Y0023217D02*
X0098112Y0023217D01*
X0098112Y0024216D02*
X0099081Y0024216D01*
X0099081Y0025214D02*
X0133250Y0025214D01*
X0133250Y0024216D02*
X0102262Y0024216D01*
X0102262Y0023217D02*
X0133250Y0023217D01*
X0133250Y0022219D02*
X0101820Y0022219D01*
X0102262Y0026213D02*
X0133250Y0026213D01*
X0133250Y0027211D02*
X0130404Y0027211D01*
X0131402Y0028210D02*
X0133250Y0028210D01*
X0133250Y0029208D02*
X0132401Y0029208D01*
X0132496Y0037196D02*
X0133250Y0037196D01*
X0133250Y0038195D02*
X0131497Y0038195D01*
X0130499Y0039193D02*
X0133250Y0039193D01*
X0133250Y0040192D02*
X0106126Y0040192D01*
X0105128Y0041190D02*
X0133250Y0041190D01*
X0133250Y0042189D02*
X0104129Y0042189D01*
X0103131Y0043187D02*
X0133250Y0043187D01*
X0133250Y0044186D02*
X0102950Y0044186D01*
X0102950Y0045184D02*
X0133250Y0045184D01*
X0133250Y0046183D02*
X0130375Y0046183D01*
X0131374Y0047182D02*
X0133250Y0047182D01*
X0133250Y0048180D02*
X0132372Y0048180D01*
X0124125Y0046183D02*
X0112375Y0046183D01*
X0113374Y0047182D02*
X0123126Y0047182D01*
X0122128Y0048180D02*
X0114372Y0048180D01*
X0115371Y0049179D02*
X0121129Y0049179D01*
X0120750Y0050177D02*
X0115750Y0050177D01*
X0115750Y0051176D02*
X0120750Y0051176D01*
X0120750Y0052174D02*
X0115750Y0052174D01*
X0115750Y0053173D02*
X0120750Y0053173D01*
X0120750Y0054171D02*
X0115750Y0054171D01*
X0115523Y0055170D02*
X0120977Y0055170D01*
X0121976Y0056168D02*
X0114524Y0056168D01*
X0113526Y0057167D02*
X0122974Y0057167D01*
X0123973Y0058165D02*
X0112527Y0058165D01*
X0106155Y0059164D02*
X0133250Y0059164D01*
X0133250Y0060162D02*
X0105156Y0060162D01*
X0104158Y0061161D02*
X0133250Y0061161D01*
X0133250Y0062159D02*
X0103159Y0062159D01*
X0102161Y0063158D02*
X0133250Y0063158D01*
X0133250Y0064156D02*
X0101162Y0064156D01*
X0100164Y0065155D02*
X0106153Y0065155D01*
X0112347Y0065155D02*
X0124153Y0065155D01*
X0123154Y0066153D02*
X0113346Y0066153D01*
X0114344Y0067152D02*
X0122156Y0067152D01*
X0121157Y0068150D02*
X0115343Y0068150D01*
X0115750Y0069149D02*
X0120750Y0069149D01*
X0120750Y0070147D02*
X0115750Y0070147D01*
X0115750Y0071146D02*
X0120750Y0071146D01*
X0120750Y0072144D02*
X0115750Y0072144D01*
X0115750Y0073143D02*
X0120750Y0073143D01*
X0120949Y0074141D02*
X0115551Y0074141D01*
X0114553Y0075140D02*
X0121947Y0075140D01*
X0122946Y0076138D02*
X0113554Y0076138D01*
X0112555Y0077137D02*
X0123944Y0077137D01*
X0130555Y0077137D02*
X0133250Y0077137D01*
X0133250Y0078135D02*
X0105954Y0078135D01*
X0105944Y0077137D02*
X0104955Y0077137D01*
X0104946Y0076138D02*
X0103957Y0076138D01*
X0103947Y0075140D02*
X0102958Y0075140D01*
X0102949Y0074141D02*
X0101960Y0074141D01*
X0102750Y0073143D02*
X0100961Y0073143D01*
X0099963Y0072144D02*
X0102750Y0072144D01*
X0097319Y0077137D02*
X0091191Y0077137D01*
X0091191Y0078135D02*
X0098317Y0078135D01*
X0099316Y0079134D02*
X0091191Y0079134D01*
X0091191Y0080132D02*
X0100314Y0080132D01*
X0101313Y0081131D02*
X0090612Y0081131D01*
X0091191Y0082129D02*
X0102311Y0082129D01*
X0103310Y0083128D02*
X0091191Y0083128D01*
X0091191Y0084126D02*
X0104308Y0084126D01*
X0105183Y0085125D02*
X0091191Y0085125D01*
X0090620Y0086123D02*
X0104184Y0086123D01*
X0103186Y0087122D02*
X0091124Y0087122D01*
X0091191Y0088120D02*
X0102750Y0088120D01*
X0102750Y0089119D02*
X0091191Y0089119D01*
X0091191Y0088841D02*
X0091191Y0090129D01*
X0091089Y0090510D01*
X0090891Y0090852D01*
X0090612Y0091131D01*
X0090270Y0091329D01*
X0089888Y0091431D01*
X0085451Y0091431D01*
X0085451Y0088841D01*
X0091191Y0088841D01*
X0091191Y0090118D02*
X0102750Y0090118D01*
X0102750Y0091116D02*
X0090627Y0091116D01*
X0085451Y0091116D02*
X0085270Y0091116D01*
X0085270Y0090118D02*
X0085451Y0090118D01*
X0085451Y0089119D02*
X0085270Y0089119D01*
X0080093Y0091116D02*
X0054407Y0091116D01*
X0054391Y0091131D02*
X0054049Y0091329D01*
X0053668Y0091431D01*
X0049230Y0091431D01*
X0049230Y0088841D01*
X0054970Y0088841D01*
X0054970Y0090129D01*
X0054868Y0090510D01*
X0054671Y0090852D01*
X0054391Y0091131D01*
X0054970Y0090118D02*
X0079530Y0090118D01*
X0079530Y0089119D02*
X0054970Y0089119D01*
X0054970Y0088120D02*
X0079530Y0088120D01*
X0079596Y0087122D02*
X0054904Y0087122D01*
X0054399Y0086123D02*
X0080101Y0086123D01*
X0071872Y0085125D02*
X0062628Y0085125D01*
X0063626Y0084126D02*
X0070874Y0084126D01*
X0049230Y0089119D02*
X0049049Y0089119D01*
X0049049Y0090118D02*
X0049230Y0090118D01*
X0049230Y0091116D02*
X0049049Y0091116D01*
X0043873Y0091116D02*
X0033750Y0091116D01*
X0033750Y0090118D02*
X0043309Y0090118D01*
X0043309Y0089119D02*
X0033750Y0089119D01*
X0033750Y0088120D02*
X0043309Y0088120D01*
X0043376Y0087122D02*
X0033314Y0087122D01*
X0032316Y0086123D02*
X0043880Y0086123D01*
X0043309Y0085125D02*
X0031317Y0085125D01*
X0032192Y0084126D02*
X0043309Y0084126D01*
X0043309Y0083128D02*
X0033190Y0083128D01*
X0034189Y0082129D02*
X0043309Y0082129D01*
X0043888Y0081131D02*
X0035187Y0081131D01*
X0036186Y0080132D02*
X0043309Y0080132D01*
X0043309Y0079134D02*
X0037184Y0079134D01*
X0038183Y0078135D02*
X0043309Y0078135D01*
X0043309Y0077137D02*
X0039181Y0077137D01*
X0035539Y0073143D02*
X0033750Y0073143D01*
X0033750Y0072144D02*
X0036537Y0072144D01*
X0034540Y0074141D02*
X0033551Y0074141D01*
X0033542Y0075140D02*
X0032553Y0075140D01*
X0032543Y0076138D02*
X0031554Y0076138D01*
X0031545Y0077137D02*
X0030555Y0077137D01*
X0030546Y0078135D02*
X0004250Y0078135D01*
X0004250Y0077137D02*
X0005945Y0077137D01*
X0004946Y0076138D02*
X0004250Y0076138D01*
X0004250Y0079134D02*
X0029548Y0079134D01*
X0028549Y0080132D02*
X0004250Y0080132D01*
X0004250Y0081131D02*
X0027551Y0081131D01*
X0026552Y0082129D02*
X0004250Y0082129D01*
X0004250Y0083128D02*
X0025554Y0083128D01*
X0024181Y0084126D02*
X0012319Y0084126D01*
X0013317Y0085125D02*
X0023183Y0085125D01*
X0022184Y0086123D02*
X0014316Y0086123D01*
X0015314Y0087122D02*
X0021186Y0087122D01*
X0020750Y0088120D02*
X0015750Y0088120D01*
X0015750Y0089119D02*
X0020750Y0089119D01*
X0020750Y0090118D02*
X0015750Y0090118D01*
X0015750Y0091116D02*
X0020750Y0091116D01*
X0020750Y0092115D02*
X0015750Y0092115D01*
X0015579Y0093113D02*
X0020921Y0093113D01*
X0021919Y0094112D02*
X0014581Y0094112D01*
X0013582Y0095110D02*
X0022918Y0095110D01*
X0023916Y0096109D02*
X0012584Y0096109D01*
X0005916Y0096109D02*
X0004250Y0096109D01*
X0004250Y0097107D02*
X0133250Y0097107D01*
X0133250Y0096109D02*
X0130584Y0096109D01*
X0131582Y0095110D02*
X0133250Y0095110D01*
X0133250Y0094112D02*
X0132581Y0094112D01*
X0133250Y0098106D02*
X0004250Y0098106D01*
X0004250Y0099104D02*
X0133250Y0099104D01*
X0133250Y0100103D02*
X0004250Y0100103D01*
X0004250Y0101101D02*
X0133250Y0101101D01*
X0133250Y0102100D02*
X0004250Y0102100D01*
X0004250Y0103098D02*
X0010495Y0103098D01*
X0007752Y0104097D02*
X0004250Y0104097D01*
X0004250Y0105095D02*
X0006464Y0105095D01*
X0005274Y0106094D02*
X0004250Y0106094D01*
X0004250Y0107092D02*
X0004605Y0107092D01*
X0014005Y0103098D02*
X0122995Y0103098D01*
X0120252Y0104097D02*
X0016748Y0104097D01*
X0018036Y0105095D02*
X0053611Y0105095D01*
X0054090Y0104616D02*
X0050789Y0107916D01*
X0050789Y0109750D01*
X0055923Y0109750D01*
X0055923Y0110750D01*
X0050789Y0110750D01*
X0050789Y0112584D01*
X0054090Y0115884D01*
X0055923Y0115884D01*
X0055923Y0110750D01*
X0056923Y0110750D01*
X0056923Y0115884D01*
X0058757Y0115884D01*
X0062057Y0112584D01*
X0062057Y0110750D01*
X0056923Y0110750D01*
X0056923Y0109750D01*
X0056923Y0104616D01*
X0058757Y0104616D01*
X0062057Y0107916D01*
X0062057Y0109750D01*
X0056923Y0109750D01*
X0055923Y0109750D01*
X0055923Y0104616D01*
X0054090Y0104616D01*
X0055923Y0105095D02*
X0056923Y0105095D01*
X0056923Y0106094D02*
X0055923Y0106094D01*
X0055923Y0107092D02*
X0056923Y0107092D01*
X0056923Y0108091D02*
X0055923Y0108091D01*
X0055923Y0109089D02*
X0056923Y0109089D01*
X0056923Y0110088D02*
X0072443Y0110088D01*
X0072443Y0111086D02*
X0062057Y0111086D01*
X0062057Y0112085D02*
X0072443Y0112085D01*
X0072443Y0112584D02*
X0072443Y0107916D01*
X0075743Y0104616D01*
X0080410Y0104616D01*
X0083711Y0107916D01*
X0083711Y0112584D01*
X0080410Y0115884D01*
X0075743Y0115884D01*
X0072443Y0112584D01*
X0072943Y0113083D02*
X0061557Y0113083D01*
X0060559Y0114082D02*
X0073941Y0114082D01*
X0074940Y0115080D02*
X0059560Y0115080D01*
X0056923Y0115080D02*
X0055923Y0115080D01*
X0055923Y0114082D02*
X0056923Y0114082D01*
X0056923Y0113083D02*
X0055923Y0113083D01*
X0055923Y0112085D02*
X0056923Y0112085D01*
X0056923Y0111086D02*
X0055923Y0111086D01*
X0055923Y0110088D02*
X0021211Y0110088D01*
X0021387Y0111086D02*
X0050789Y0111086D01*
X0050789Y0112085D02*
X0021563Y0112085D01*
X0021445Y0113083D02*
X0051289Y0113083D01*
X0052288Y0114082D02*
X0021269Y0114082D01*
X0021093Y0115080D02*
X0053286Y0115080D01*
X0050789Y0109089D02*
X0021035Y0109089D01*
X0020472Y0108091D02*
X0050789Y0108091D01*
X0051614Y0107092D02*
X0019895Y0107092D01*
X0019406Y0106245D02*
X0019406Y0106245D01*
X0019226Y0106094D02*
X0052612Y0106094D01*
X0059236Y0105095D02*
X0075264Y0105095D01*
X0074266Y0106094D02*
X0060234Y0106094D01*
X0061233Y0107092D02*
X0073267Y0107092D01*
X0072443Y0108091D02*
X0062057Y0108091D01*
X0062057Y0109089D02*
X0072443Y0109089D01*
X0080889Y0105095D02*
X0118964Y0105095D01*
X0117774Y0106094D02*
X0081888Y0106094D01*
X0082886Y0107092D02*
X0117105Y0107092D01*
X0116528Y0108091D02*
X0083711Y0108091D01*
X0083711Y0109089D02*
X0115965Y0109089D01*
X0115789Y0110088D02*
X0083711Y0110088D01*
X0083711Y0111086D02*
X0115613Y0111086D01*
X0115437Y0112085D02*
X0083711Y0112085D01*
X0083211Y0113083D02*
X0115555Y0113083D01*
X0115731Y0114082D02*
X0082212Y0114082D01*
X0081214Y0115080D02*
X0115907Y0115080D01*
X0116337Y0116079D02*
X0020663Y0116079D01*
X0020086Y0117077D02*
X0116914Y0117077D01*
X0117490Y0118076D02*
X0019510Y0118076D01*
X0018430Y0119074D02*
X0118570Y0119074D01*
X0117594Y0118255D02*
X0117594Y0118255D01*
X0119760Y0120073D02*
X0017240Y0120073D01*
X0030584Y0096109D02*
X0105916Y0096109D01*
X0104918Y0095110D02*
X0031582Y0095110D01*
X0032581Y0094112D02*
X0103919Y0094112D01*
X0102921Y0093113D02*
X0033579Y0093113D01*
X0033750Y0092115D02*
X0102750Y0092115D01*
X0112319Y0084126D02*
X0124181Y0084126D01*
X0123183Y0085125D02*
X0113317Y0085125D01*
X0114316Y0086123D02*
X0122184Y0086123D01*
X0121186Y0087122D02*
X0115314Y0087122D01*
X0115750Y0088120D02*
X0120750Y0088120D01*
X0120750Y0089119D02*
X0115750Y0089119D01*
X0115750Y0090118D02*
X0120750Y0090118D01*
X0120750Y0091116D02*
X0115750Y0091116D01*
X0115750Y0092115D02*
X0120750Y0092115D01*
X0120921Y0093113D02*
X0115579Y0093113D01*
X0114581Y0094112D02*
X0121919Y0094112D01*
X0122918Y0095110D02*
X0113582Y0095110D01*
X0112584Y0096109D02*
X0123916Y0096109D01*
X0126372Y0103050D02*
X0126372Y0103050D01*
X0126505Y0103098D02*
X0133250Y0103098D01*
X0133250Y0104097D02*
X0129248Y0104097D01*
X0130536Y0105095D02*
X0133250Y0105095D01*
X0133250Y0106094D02*
X0131726Y0106094D01*
X0131906Y0106245D02*
X0131906Y0106245D01*
X0132395Y0107092D02*
X0133250Y0107092D01*
X0133250Y0108091D02*
X0132972Y0108091D01*
X0133250Y0086123D02*
X0132316Y0086123D01*
X0133250Y0085125D02*
X0131317Y0085125D01*
X0130319Y0084126D02*
X0133250Y0084126D01*
X0133250Y0083128D02*
X0110946Y0083128D01*
X0109948Y0082129D02*
X0133250Y0082129D01*
X0133250Y0081131D02*
X0108949Y0081131D01*
X0107951Y0080132D02*
X0133250Y0080132D01*
X0133250Y0079134D02*
X0106952Y0079134D01*
X0130347Y0065155D02*
X0133250Y0065155D01*
X0133250Y0066153D02*
X0131346Y0066153D01*
X0132344Y0067152D02*
X0133250Y0067152D01*
X0133250Y0075140D02*
X0132553Y0075140D01*
X0133250Y0076138D02*
X0131554Y0076138D01*
X0130527Y0058165D02*
X0133250Y0058165D01*
X0133250Y0057167D02*
X0131526Y0057167D01*
X0132524Y0056168D02*
X0133250Y0056168D01*
X0124001Y0039193D02*
X0112499Y0039193D01*
X0113497Y0038195D02*
X0123003Y0038195D01*
X0122004Y0037196D02*
X0114496Y0037196D01*
X0115494Y0036198D02*
X0121006Y0036198D01*
X0120750Y0035199D02*
X0115750Y0035199D01*
X0115750Y0034201D02*
X0120750Y0034201D01*
X0120750Y0033202D02*
X0115750Y0033202D01*
X0115750Y0032204D02*
X0120750Y0032204D01*
X0120750Y0031205D02*
X0115750Y0031205D01*
X0115399Y0030207D02*
X0121101Y0030207D01*
X0122099Y0029208D02*
X0114401Y0029208D01*
X0113402Y0028210D02*
X0123098Y0028210D01*
X0124096Y0027211D02*
X0112404Y0027211D01*
X0106096Y0027211D02*
X0102262Y0027211D01*
X0101892Y0028210D02*
X0105098Y0028210D01*
X0104099Y0029208D02*
X0094204Y0029208D01*
X0095116Y0030207D02*
X0095384Y0030207D01*
X0095301Y0028210D02*
X0095199Y0028210D01*
X0098112Y0028210D02*
X0099081Y0028210D01*
X0099081Y0027211D02*
X0098112Y0027211D01*
X0098112Y0026213D02*
X0099081Y0026213D01*
X0099081Y0029781D02*
X0100959Y0029781D01*
X0101341Y0029884D01*
X0101683Y0030081D01*
X0101962Y0030360D01*
X0102160Y0030703D01*
X0102262Y0031084D01*
X0102262Y0032766D01*
X0099081Y0032766D01*
X0099081Y0029781D01*
X0099081Y0030207D02*
X0098112Y0030207D01*
X0098112Y0031205D02*
X0099081Y0031205D01*
X0099081Y0032204D02*
X0098112Y0032204D01*
X0099081Y0033202D02*
X0102750Y0033202D01*
X0102750Y0032204D02*
X0102262Y0032204D01*
X0102262Y0031205D02*
X0102750Y0031205D01*
X0103101Y0030207D02*
X0101808Y0030207D01*
X0102262Y0034201D02*
X0102750Y0034201D01*
X0102750Y0035199D02*
X0102262Y0035199D01*
X0102484Y0036198D02*
X0101904Y0036198D01*
X0101485Y0037196D02*
X0094550Y0037196D01*
X0094550Y0038195D02*
X0100487Y0038195D01*
X0099488Y0039193D02*
X0094550Y0039193D01*
X0094550Y0040192D02*
X0098490Y0040192D01*
X0097766Y0041190D02*
X0094550Y0041190D01*
X0094550Y0042189D02*
X0097550Y0042189D01*
X0097550Y0043187D02*
X0094550Y0043187D01*
X0094550Y0044186D02*
X0097550Y0044186D01*
X0097550Y0045184D02*
X0094550Y0045184D01*
X0094550Y0046183D02*
X0097550Y0046183D01*
X0097550Y0047182D02*
X0094550Y0047182D01*
X0093573Y0048180D02*
X0097550Y0048180D01*
X0097550Y0049179D02*
X0092574Y0049179D01*
X0091576Y0050177D02*
X0097550Y0050177D01*
X0097550Y0051176D02*
X0090568Y0051176D01*
X0091191Y0052174D02*
X0097508Y0052174D01*
X0096509Y0053173D02*
X0091191Y0053173D01*
X0091191Y0054171D02*
X0095511Y0054171D01*
X0094512Y0055170D02*
X0091191Y0055170D01*
X0102950Y0049179D02*
X0103129Y0049179D01*
X0102950Y0048180D02*
X0104128Y0048180D01*
X0105126Y0047182D02*
X0102950Y0047182D01*
X0102950Y0046183D02*
X0106125Y0046183D01*
X0099081Y0036198D02*
X0098112Y0036198D01*
X0098112Y0035199D02*
X0099081Y0035199D01*
X0099081Y0034201D02*
X0098112Y0034201D01*
X0095289Y0036198D02*
X0095211Y0036198D01*
X0127003Y0021220D02*
X0133250Y0021220D01*
X0133250Y0020222D02*
X0129562Y0020222D01*
X0130752Y0019223D02*
X0133250Y0019223D01*
X0133250Y0018225D02*
X0131924Y0018225D01*
X0132500Y0017226D02*
X0133250Y0017226D01*
X0133250Y0016228D02*
X0133077Y0016228D01*
X0044066Y0041190D02*
X0041350Y0041190D01*
X0041350Y0042189D02*
X0043309Y0042189D01*
X0043309Y0043187D02*
X0041350Y0043187D01*
X0041350Y0044186D02*
X0043309Y0044186D01*
X0043309Y0045184D02*
X0041350Y0045184D01*
X0041350Y0046183D02*
X0043940Y0046183D01*
X0043360Y0047182D02*
X0041350Y0047182D01*
X0041350Y0048180D02*
X0043309Y0048180D01*
X0043309Y0049179D02*
X0041350Y0049179D01*
X0041350Y0050177D02*
X0043322Y0050177D01*
X0043965Y0051176D02*
X0041350Y0051176D01*
X0033550Y0049179D02*
X0033371Y0049179D01*
X0033550Y0048180D02*
X0032372Y0048180D01*
X0031374Y0047182D02*
X0033550Y0047182D01*
X0033550Y0046183D02*
X0030375Y0046183D01*
X0033550Y0045184D02*
X0004250Y0045184D01*
X0004250Y0044186D02*
X0033550Y0044186D01*
X0033369Y0043187D02*
X0004250Y0043187D01*
X0004250Y0042189D02*
X0032371Y0042189D01*
X0031372Y0041190D02*
X0004250Y0041190D01*
X0004250Y0040192D02*
X0030374Y0040192D01*
X0034016Y0036198D02*
X0035781Y0036198D01*
X0035781Y0037196D02*
X0035015Y0037196D01*
X0036013Y0038195D02*
X0036593Y0038195D01*
X0037012Y0039193D02*
X0037150Y0039193D01*
X0035781Y0035199D02*
X0033750Y0035199D01*
X0033750Y0034201D02*
X0035781Y0034201D01*
X0035781Y0033202D02*
X0033750Y0033202D01*
X0033750Y0032204D02*
X0035781Y0032204D01*
X0036297Y0031205D02*
X0033750Y0031205D01*
X0033399Y0030207D02*
X0035781Y0030207D01*
X0035781Y0029208D02*
X0032401Y0029208D01*
X0031402Y0028210D02*
X0035781Y0028210D01*
X0035781Y0027211D02*
X0030404Y0027211D01*
X0035781Y0026213D02*
X0004250Y0026213D01*
X0004250Y0027211D02*
X0006096Y0027211D01*
X0005098Y0028210D02*
X0004250Y0028210D01*
X0004250Y0025214D02*
X0035781Y0025214D01*
X0036175Y0024216D02*
X0004250Y0024216D01*
X0004250Y0023217D02*
X0036175Y0023217D01*
X0036175Y0022219D02*
X0004250Y0022219D01*
X0004250Y0021220D02*
X0009997Y0021220D01*
X0007438Y0020222D02*
X0004250Y0020222D01*
X0004250Y0019223D02*
X0006248Y0019223D01*
X0005094Y0018255D02*
X0005094Y0018255D01*
X0005076Y0018225D02*
X0004250Y0018225D01*
X0004250Y0017226D02*
X0004500Y0017226D01*
X0014503Y0021220D02*
X0036175Y0021220D01*
X0036175Y0020222D02*
X0017062Y0020222D01*
X0018252Y0019223D02*
X0036959Y0019223D01*
X0036217Y0018225D02*
X0019424Y0018225D01*
X0020000Y0017226D02*
X0036175Y0017226D01*
X0024096Y0027211D02*
X0012404Y0027211D01*
X0013402Y0028210D02*
X0023098Y0028210D01*
X0022099Y0029208D02*
X0014401Y0029208D01*
X0015399Y0030207D02*
X0021101Y0030207D01*
X0020750Y0031205D02*
X0015750Y0031205D01*
X0015750Y0032204D02*
X0020750Y0032204D01*
X0020750Y0033202D02*
X0015750Y0033202D01*
X0015750Y0034201D02*
X0020750Y0034201D01*
X0020750Y0035199D02*
X0015750Y0035199D01*
X0015494Y0036198D02*
X0021006Y0036198D01*
X0022004Y0037196D02*
X0014496Y0037196D01*
X0013497Y0038195D02*
X0023003Y0038195D01*
X0024001Y0039193D02*
X0012499Y0039193D01*
X0006001Y0039193D02*
X0004250Y0039193D01*
X0004250Y0038195D02*
X0005003Y0038195D01*
X0004250Y0046183D02*
X0006125Y0046183D01*
X0005126Y0047182D02*
X0004250Y0047182D01*
X0012375Y0046183D02*
X0024125Y0046183D01*
X0023126Y0047182D02*
X0013374Y0047182D01*
X0014372Y0048180D02*
X0022128Y0048180D01*
X0021129Y0049179D02*
X0015371Y0049179D01*
X0015750Y0050177D02*
X0020750Y0050177D01*
X0020750Y0051176D02*
X0015750Y0051176D01*
X0015750Y0052174D02*
X0020750Y0052174D01*
X0020750Y0053173D02*
X0015750Y0053173D01*
X0015750Y0054171D02*
X0020750Y0054171D01*
X0020977Y0055170D02*
X0015523Y0055170D01*
X0014524Y0056168D02*
X0021976Y0056168D01*
X0022974Y0057167D02*
X0013526Y0057167D01*
X0012527Y0058165D02*
X0023973Y0058165D01*
X0030345Y0059164D02*
X0004250Y0059164D01*
X0004250Y0060162D02*
X0031344Y0060162D01*
X0032342Y0061161D02*
X0004250Y0061161D01*
X0004250Y0062159D02*
X0033341Y0062159D01*
X0034339Y0063158D02*
X0004250Y0063158D01*
X0004250Y0064156D02*
X0035338Y0064156D01*
X0036336Y0065155D02*
X0030347Y0065155D01*
X0024153Y0065155D02*
X0012347Y0065155D01*
X0013346Y0066153D02*
X0023154Y0066153D01*
X0022156Y0067152D02*
X0014344Y0067152D01*
X0015343Y0068150D02*
X0021157Y0068150D01*
X0020750Y0069149D02*
X0015750Y0069149D01*
X0015750Y0070147D02*
X0020750Y0070147D01*
X0020750Y0071146D02*
X0015750Y0071146D01*
X0015750Y0072144D02*
X0020750Y0072144D01*
X0020750Y0073143D02*
X0015750Y0073143D01*
X0015551Y0074141D02*
X0020949Y0074141D01*
X0021947Y0075140D02*
X0014553Y0075140D01*
X0013554Y0076138D02*
X0022946Y0076138D01*
X0023944Y0077137D02*
X0012555Y0077137D01*
X0006181Y0084126D02*
X0004250Y0084126D01*
X0004250Y0085125D02*
X0005183Y0085125D01*
X0004918Y0095110D02*
X0004250Y0095110D01*
X0004250Y0066153D02*
X0005154Y0066153D01*
X0004250Y0065155D02*
X0006153Y0065155D01*
X0005973Y0058165D02*
X0004250Y0058165D01*
X0004250Y0057167D02*
X0004974Y0057167D01*
X0019406Y0006245D02*
X0019406Y0006245D01*
D18*
X0032250Y0016250D03*
X0057250Y0061250D03*
X0067250Y0087250D03*
X0096250Y0087250D03*
X0038250Y0087250D03*
X0103250Y0016250D03*
D19*
X0091904Y0015904D02*
X0091904Y0025250D01*
X0091904Y0033250D01*
X0092250Y0033596D01*
X0092250Y0046250D01*
X0089750Y0048750D01*
X0085360Y0048750D01*
X0085360Y0053750D02*
X0077750Y0053750D01*
X0076250Y0052250D01*
X0076250Y0043250D01*
X0083250Y0036250D01*
X0083250Y0022250D01*
X0079061Y0018061D01*
X0079061Y0013785D01*
X0071187Y0013785D02*
X0071187Y0010313D01*
X0075250Y0006250D01*
X0082250Y0006250D01*
X0091904Y0015904D01*
X0079061Y0030715D02*
X0079061Y0034439D01*
X0073250Y0040250D01*
X0073250Y0076250D01*
X0075750Y0078750D01*
X0085360Y0078750D01*
X0085360Y0083750D02*
X0073750Y0083750D01*
X0070250Y0080250D01*
X0070250Y0039250D01*
X0071187Y0038313D01*
X0071187Y0030715D01*
X0063313Y0030715D02*
X0063313Y0038313D01*
X0064250Y0039250D01*
X0064250Y0080250D01*
X0060750Y0083750D01*
X0049140Y0083750D01*
X0049140Y0078750D02*
X0058750Y0078750D01*
X0061250Y0076250D01*
X0061250Y0040250D01*
X0055439Y0034439D01*
X0055439Y0030715D01*
D20*
X0036250Y0042250D02*
X0027250Y0033250D01*
X0036250Y0042250D02*
X0036250Y0053250D01*
X0041750Y0058750D01*
X0049140Y0058750D01*
X0049140Y0063750D02*
X0038750Y0063750D01*
X0027250Y0052250D01*
X0029750Y0068750D02*
X0027250Y0071250D01*
X0029750Y0068750D02*
X0049140Y0068750D01*
X0049140Y0073750D02*
X0038750Y0073750D01*
X0027250Y0085250D01*
X0027250Y0090250D01*
X0085360Y0073750D02*
X0097750Y0073750D01*
X0109250Y0085250D01*
X0109250Y0090250D01*
X0109250Y0071250D02*
X0106750Y0068750D01*
X0085360Y0068750D01*
X0085360Y0063750D02*
X0097750Y0063750D01*
X0109250Y0052250D01*
X0100250Y0053250D02*
X0100250Y0042250D01*
X0109250Y0033250D01*
X0100250Y0053250D02*
X0094750Y0058750D01*
X0085360Y0058750D01*
D21*
X0049140Y0053750D02*
X0040750Y0053750D01*
X0039250Y0052250D01*
X0039250Y0034596D01*
X0039250Y0027904D02*
X0039250Y0022203D01*
M02*
