%
M48
M72
T01C0.02000
T02C0.03937
T03C0.05500
T04C0.05512
T05C0.13000
%
T01
X32250Y16250
X57250Y61250
X67250Y87250
X96250Y87250
X38250Y87250
X103250Y16250
T02
X75124Y22250
X59376Y22250
T03
X27250Y33250
X9250Y33250
X9250Y52250
X27250Y52250
X27250Y71250
X9250Y71250
X9250Y90250
X27250Y90250
X109250Y90250
X127250Y90250
X127250Y71250
X109250Y71250
X109250Y52250
X127250Y52250
X127250Y33250
X109250Y33250
T04
X78077Y110250
X56423Y110250
T05
X12250Y12250
X12250Y112250
X124750Y112250
X124750Y12250
M30
