G75*
%MOIN*%
%OFA0B0*%
%FSLAX25Y25*%
%IPPOS*%
%LPD*%
%AMOC8*
5,1,8,0,0,1.08239X$1,22.5*
%
%ADD10OC8,0.10000*%
%ADD11OC8,0.08268*%
%ADD12C,0.01000*%
%ADD13C,0.03600*%
D10*
X0009250Y0033250D03*
X0027250Y0033250D03*
X0027250Y0052250D03*
X0009250Y0052250D03*
X0009250Y0071250D03*
X0027250Y0071250D03*
X0027250Y0090250D03*
X0009250Y0090250D03*
X0109250Y0090250D03*
X0127250Y0090250D03*
X0127250Y0071250D03*
X0109250Y0071250D03*
X0109250Y0052250D03*
X0127250Y0052250D03*
X0127250Y0033250D03*
X0109250Y0033250D03*
D11*
X0078077Y0110250D03*
X0056423Y0110250D03*
D12*
X0022250Y0029058D02*
X0022250Y0003750D01*
X0114250Y0003750D01*
X0114250Y0029058D01*
X0111942Y0026750D01*
X0106558Y0026750D01*
X0102750Y0030558D01*
X0102750Y0035942D01*
X0106558Y0039750D01*
X0111942Y0039750D01*
X0114250Y0037442D01*
X0114250Y0048058D01*
X0111942Y0045750D01*
X0106558Y0045750D01*
X0102750Y0049558D01*
X0102750Y0054942D01*
X0106558Y0058750D01*
X0111942Y0058750D01*
X0114250Y0056442D01*
X0114250Y0067058D01*
X0111942Y0064750D01*
X0106558Y0064750D01*
X0102750Y0068558D01*
X0102750Y0073942D01*
X0106558Y0077750D01*
X0111942Y0077750D01*
X0114250Y0075442D01*
X0114250Y0086058D01*
X0111942Y0083750D01*
X0106558Y0083750D01*
X0102750Y0087558D01*
X0102750Y0092250D01*
X0033750Y0092250D01*
X0033750Y0087558D01*
X0029942Y0083750D01*
X0024558Y0083750D01*
X0022250Y0086058D01*
X0022250Y0075442D01*
X0024558Y0077750D01*
X0029942Y0077750D01*
X0033750Y0073942D01*
X0033750Y0068558D01*
X0029942Y0064750D01*
X0024558Y0064750D01*
X0022250Y0067058D01*
X0022250Y0056442D01*
X0024558Y0058750D01*
X0029942Y0058750D01*
X0033750Y0054942D01*
X0033750Y0049558D01*
X0029942Y0045750D01*
X0024558Y0045750D01*
X0022250Y0048058D01*
X0022250Y0037442D01*
X0024558Y0039750D01*
X0029942Y0039750D01*
X0033750Y0035942D01*
X0033750Y0030558D01*
X0029942Y0026750D01*
X0024558Y0026750D01*
X0022250Y0029058D01*
X0022250Y0028210D02*
X0023098Y0028210D01*
X0022250Y0027211D02*
X0024096Y0027211D01*
X0022250Y0026213D02*
X0057266Y0026213D01*
X0056845Y0026038D02*
X0055588Y0024781D01*
X0054907Y0023139D01*
X0054907Y0021361D01*
X0055588Y0019719D01*
X0056845Y0018462D01*
X0058487Y0017781D01*
X0060265Y0017781D01*
X0061907Y0018462D01*
X0063164Y0019719D01*
X0063844Y0021361D01*
X0063844Y0023139D01*
X0063164Y0024781D01*
X0061907Y0026038D01*
X0060265Y0026718D01*
X0058487Y0026718D01*
X0056845Y0026038D01*
X0056021Y0025214D02*
X0022250Y0025214D01*
X0022250Y0024216D02*
X0055354Y0024216D01*
X0054940Y0023217D02*
X0022250Y0023217D01*
X0022250Y0022219D02*
X0054907Y0022219D01*
X0054966Y0021220D02*
X0022250Y0021220D01*
X0022250Y0020222D02*
X0055379Y0020222D01*
X0056083Y0019223D02*
X0022250Y0019223D01*
X0022250Y0018225D02*
X0057417Y0018225D01*
X0061335Y0018225D02*
X0073165Y0018225D01*
X0072593Y0018462D02*
X0071336Y0019719D01*
X0070656Y0021361D01*
X0070656Y0023139D01*
X0071336Y0024781D01*
X0072593Y0026038D01*
X0074235Y0026718D01*
X0076013Y0026718D01*
X0077655Y0026038D01*
X0078912Y0024781D01*
X0079593Y0023139D01*
X0079593Y0021361D01*
X0078912Y0019719D01*
X0077655Y0018462D01*
X0076013Y0017781D01*
X0074235Y0017781D01*
X0072593Y0018462D01*
X0071831Y0019223D02*
X0062669Y0019223D01*
X0063373Y0020222D02*
X0071127Y0020222D01*
X0070714Y0021220D02*
X0063786Y0021220D01*
X0063844Y0022219D02*
X0070656Y0022219D01*
X0070688Y0023217D02*
X0063812Y0023217D01*
X0063398Y0024216D02*
X0071102Y0024216D01*
X0071769Y0025214D02*
X0062731Y0025214D01*
X0061486Y0026213D02*
X0073014Y0026213D01*
X0077234Y0026213D02*
X0114250Y0026213D01*
X0114250Y0027211D02*
X0112404Y0027211D01*
X0113402Y0028210D02*
X0114250Y0028210D01*
X0116450Y0028210D02*
X0123098Y0028210D01*
X0122099Y0029208D02*
X0116450Y0029208D01*
X0116450Y0030207D02*
X0121101Y0030207D01*
X0120750Y0030558D02*
X0124558Y0026750D01*
X0126750Y0026750D01*
X0126750Y0032750D01*
X0127750Y0032750D01*
X0127750Y0026750D01*
X0129942Y0026750D01*
X0132250Y0029058D01*
X0132250Y0026250D01*
X0116450Y0026250D01*
X0116450Y0093161D01*
X0115161Y0094450D01*
X0114525Y0094450D01*
X0112025Y0096950D01*
X0106475Y0096950D01*
X0103975Y0094450D01*
X0032525Y0094450D01*
X0030025Y0096950D01*
X0024475Y0096950D01*
X0021975Y0094450D01*
X0021339Y0094450D01*
X0020050Y0093161D01*
X0020050Y0026250D01*
X0003750Y0026250D01*
X0003750Y0029558D01*
X0006558Y0026750D01*
X0008750Y0026750D01*
X0008750Y0032750D01*
X0009750Y0032750D01*
X0009750Y0033750D01*
X0008750Y0033750D01*
X0008750Y0039750D01*
X0006558Y0039750D01*
X0003750Y0036942D01*
X0003750Y0048558D01*
X0006558Y0045750D01*
X0008750Y0045750D01*
X0008750Y0051750D01*
X0009750Y0051750D01*
X0009750Y0052750D01*
X0008750Y0052750D01*
X0008750Y0058750D01*
X0006558Y0058750D01*
X0003750Y0055942D01*
X0003750Y0067558D01*
X0006558Y0064750D01*
X0008750Y0064750D01*
X0008750Y0070750D01*
X0009750Y0070750D01*
X0009750Y0071750D01*
X0008750Y0071750D01*
X0008750Y0077750D01*
X0006558Y0077750D01*
X0003750Y0074942D01*
X0003750Y0086558D01*
X0006558Y0083750D01*
X0008750Y0083750D01*
X0008750Y0089750D01*
X0009750Y0089750D01*
X0009750Y0090750D01*
X0008750Y0090750D01*
X0008750Y0096750D01*
X0006558Y0096750D01*
X0003750Y0093942D01*
X0003750Y0098250D01*
X0018250Y0098250D01*
X0040250Y0120250D01*
X0097250Y0120250D01*
X0118250Y0098250D01*
X0132250Y0098250D01*
X0132250Y0094442D01*
X0129942Y0096750D01*
X0127750Y0096750D01*
X0127750Y0090750D01*
X0126750Y0090750D01*
X0126750Y0096750D01*
X0124558Y0096750D01*
X0120750Y0092942D01*
X0120750Y0090750D01*
X0126750Y0090750D01*
X0126750Y0089750D01*
X0127750Y0089750D01*
X0127750Y0083750D01*
X0129942Y0083750D01*
X0132250Y0086058D01*
X0132250Y0075442D01*
X0129942Y0077750D01*
X0127750Y0077750D01*
X0127750Y0071750D01*
X0126750Y0071750D01*
X0126750Y0077750D01*
X0124558Y0077750D01*
X0120750Y0073942D01*
X0120750Y0071750D01*
X0126750Y0071750D01*
X0126750Y0070750D01*
X0127750Y0070750D01*
X0127750Y0064750D01*
X0129942Y0064750D01*
X0132250Y0067058D01*
X0132250Y0056442D01*
X0129942Y0058750D01*
X0127750Y0058750D01*
X0127750Y0052750D01*
X0126750Y0052750D01*
X0126750Y0058750D01*
X0124558Y0058750D01*
X0120750Y0054942D01*
X0120750Y0052750D01*
X0126750Y0052750D01*
X0126750Y0051750D01*
X0127750Y0051750D01*
X0127750Y0045750D01*
X0129942Y0045750D01*
X0132250Y0048058D01*
X0132250Y0037442D01*
X0129942Y0039750D01*
X0127750Y0039750D01*
X0127750Y0033750D01*
X0126750Y0033750D01*
X0126750Y0039750D01*
X0124558Y0039750D01*
X0120750Y0035942D01*
X0120750Y0033750D01*
X0126750Y0033750D01*
X0126750Y0032750D01*
X0120750Y0032750D01*
X0120750Y0030558D01*
X0120750Y0031205D02*
X0116450Y0031205D01*
X0116450Y0032204D02*
X0120750Y0032204D01*
X0120750Y0034201D02*
X0116450Y0034201D01*
X0116450Y0035199D02*
X0120750Y0035199D01*
X0121006Y0036198D02*
X0116450Y0036198D01*
X0116450Y0037196D02*
X0122004Y0037196D01*
X0123003Y0038195D02*
X0116450Y0038195D01*
X0116450Y0039193D02*
X0124001Y0039193D01*
X0126750Y0039193D02*
X0127750Y0039193D01*
X0127750Y0038195D02*
X0126750Y0038195D01*
X0126750Y0037196D02*
X0127750Y0037196D01*
X0127750Y0036198D02*
X0126750Y0036198D01*
X0126750Y0035199D02*
X0127750Y0035199D01*
X0127750Y0034201D02*
X0126750Y0034201D01*
X0126750Y0033202D02*
X0116450Y0033202D01*
X0114250Y0038195D02*
X0113497Y0038195D01*
X0114250Y0039193D02*
X0112499Y0039193D01*
X0114250Y0040192D02*
X0022250Y0040192D01*
X0022250Y0041190D02*
X0114250Y0041190D01*
X0114250Y0042189D02*
X0022250Y0042189D01*
X0022250Y0043187D02*
X0114250Y0043187D01*
X0114250Y0044186D02*
X0022250Y0044186D01*
X0022250Y0045184D02*
X0114250Y0045184D01*
X0114250Y0046183D02*
X0112375Y0046183D01*
X0113374Y0047182D02*
X0114250Y0047182D01*
X0116450Y0047182D02*
X0123126Y0047182D01*
X0122128Y0048180D02*
X0116450Y0048180D01*
X0116450Y0049179D02*
X0121129Y0049179D01*
X0120750Y0049558D02*
X0124558Y0045750D01*
X0126750Y0045750D01*
X0126750Y0051750D01*
X0120750Y0051750D01*
X0120750Y0049558D01*
X0120750Y0050177D02*
X0116450Y0050177D01*
X0116450Y0051176D02*
X0120750Y0051176D01*
X0120750Y0053173D02*
X0116450Y0053173D01*
X0116450Y0054171D02*
X0120750Y0054171D01*
X0120977Y0055170D02*
X0116450Y0055170D01*
X0116450Y0056168D02*
X0121976Y0056168D01*
X0122974Y0057167D02*
X0116450Y0057167D01*
X0116450Y0058165D02*
X0123973Y0058165D01*
X0126750Y0058165D02*
X0127750Y0058165D01*
X0127750Y0057167D02*
X0126750Y0057167D01*
X0126750Y0056168D02*
X0127750Y0056168D01*
X0127750Y0055170D02*
X0126750Y0055170D01*
X0126750Y0054171D02*
X0127750Y0054171D01*
X0127750Y0053173D02*
X0126750Y0053173D01*
X0126750Y0052174D02*
X0116450Y0052174D01*
X0114250Y0057167D02*
X0113526Y0057167D01*
X0114250Y0058165D02*
X0112527Y0058165D01*
X0114250Y0059164D02*
X0022250Y0059164D01*
X0022250Y0060162D02*
X0114250Y0060162D01*
X0114250Y0061161D02*
X0022250Y0061161D01*
X0022250Y0062159D02*
X0114250Y0062159D01*
X0114250Y0063158D02*
X0022250Y0063158D01*
X0022250Y0064156D02*
X0114250Y0064156D01*
X0114250Y0065155D02*
X0112347Y0065155D01*
X0113346Y0066153D02*
X0114250Y0066153D01*
X0116450Y0066153D02*
X0123154Y0066153D01*
X0122156Y0067152D02*
X0116450Y0067152D01*
X0116450Y0068150D02*
X0121157Y0068150D01*
X0120750Y0068558D02*
X0124558Y0064750D01*
X0126750Y0064750D01*
X0126750Y0070750D01*
X0120750Y0070750D01*
X0120750Y0068558D01*
X0120750Y0069149D02*
X0116450Y0069149D01*
X0116450Y0070147D02*
X0120750Y0070147D01*
X0120750Y0072144D02*
X0116450Y0072144D01*
X0116450Y0071146D02*
X0126750Y0071146D01*
X0126750Y0072144D02*
X0127750Y0072144D01*
X0127750Y0073143D02*
X0126750Y0073143D01*
X0126750Y0074141D02*
X0127750Y0074141D01*
X0127750Y0075140D02*
X0126750Y0075140D01*
X0126750Y0076138D02*
X0127750Y0076138D01*
X0127750Y0077137D02*
X0126750Y0077137D01*
X0123944Y0077137D02*
X0116450Y0077137D01*
X0116450Y0078135D02*
X0132250Y0078135D01*
X0132250Y0077137D02*
X0130555Y0077137D01*
X0131554Y0076138D02*
X0132250Y0076138D01*
X0132250Y0079134D02*
X0116450Y0079134D01*
X0116450Y0080132D02*
X0132250Y0080132D01*
X0132250Y0081131D02*
X0116450Y0081131D01*
X0116450Y0082129D02*
X0132250Y0082129D01*
X0132250Y0083128D02*
X0116450Y0083128D01*
X0116450Y0084126D02*
X0124181Y0084126D01*
X0124558Y0083750D02*
X0126750Y0083750D01*
X0126750Y0089750D01*
X0120750Y0089750D01*
X0120750Y0087558D01*
X0124558Y0083750D01*
X0123183Y0085125D02*
X0116450Y0085125D01*
X0116450Y0086123D02*
X0122184Y0086123D01*
X0121186Y0087122D02*
X0116450Y0087122D01*
X0116450Y0088120D02*
X0120750Y0088120D01*
X0120750Y0089119D02*
X0116450Y0089119D01*
X0116450Y0090118D02*
X0126750Y0090118D01*
X0126750Y0091116D02*
X0127750Y0091116D01*
X0127750Y0092115D02*
X0126750Y0092115D01*
X0126750Y0093113D02*
X0127750Y0093113D01*
X0127750Y0094112D02*
X0126750Y0094112D01*
X0126750Y0095110D02*
X0127750Y0095110D01*
X0127750Y0096109D02*
X0126750Y0096109D01*
X0123916Y0096109D02*
X0112867Y0096109D01*
X0113865Y0095110D02*
X0122918Y0095110D01*
X0121919Y0094112D02*
X0115500Y0094112D01*
X0116450Y0093113D02*
X0120921Y0093113D01*
X0120750Y0092115D02*
X0116450Y0092115D01*
X0116450Y0091116D02*
X0120750Y0091116D01*
X0126750Y0089119D02*
X0127750Y0089119D01*
X0127750Y0088120D02*
X0126750Y0088120D01*
X0126750Y0087122D02*
X0127750Y0087122D01*
X0127750Y0086123D02*
X0126750Y0086123D01*
X0126750Y0085125D02*
X0127750Y0085125D01*
X0127750Y0084126D02*
X0126750Y0084126D01*
X0130319Y0084126D02*
X0132250Y0084126D01*
X0132250Y0085125D02*
X0131317Y0085125D01*
X0122946Y0076138D02*
X0116450Y0076138D01*
X0116450Y0075140D02*
X0121947Y0075140D01*
X0120949Y0074141D02*
X0116450Y0074141D01*
X0116450Y0073143D02*
X0120750Y0073143D01*
X0126750Y0070147D02*
X0127750Y0070147D01*
X0127750Y0069149D02*
X0126750Y0069149D01*
X0126750Y0068150D02*
X0127750Y0068150D01*
X0127750Y0067152D02*
X0126750Y0067152D01*
X0126750Y0066153D02*
X0127750Y0066153D01*
X0127750Y0065155D02*
X0126750Y0065155D01*
X0124153Y0065155D02*
X0116450Y0065155D01*
X0116450Y0064156D02*
X0132250Y0064156D01*
X0132250Y0063158D02*
X0116450Y0063158D01*
X0116450Y0062159D02*
X0132250Y0062159D01*
X0132250Y0061161D02*
X0116450Y0061161D01*
X0116450Y0060162D02*
X0132250Y0060162D01*
X0132250Y0059164D02*
X0116450Y0059164D01*
X0126750Y0051176D02*
X0127750Y0051176D01*
X0127750Y0050177D02*
X0126750Y0050177D01*
X0126750Y0049179D02*
X0127750Y0049179D01*
X0127750Y0048180D02*
X0126750Y0048180D01*
X0126750Y0047182D02*
X0127750Y0047182D01*
X0127750Y0046183D02*
X0126750Y0046183D01*
X0124125Y0046183D02*
X0116450Y0046183D01*
X0116450Y0045184D02*
X0132250Y0045184D01*
X0132250Y0044186D02*
X0116450Y0044186D01*
X0116450Y0043187D02*
X0132250Y0043187D01*
X0132250Y0042189D02*
X0116450Y0042189D01*
X0116450Y0041190D02*
X0132250Y0041190D01*
X0132250Y0040192D02*
X0116450Y0040192D01*
X0126750Y0032204D02*
X0127750Y0032204D01*
X0127750Y0031205D02*
X0126750Y0031205D01*
X0126750Y0030207D02*
X0127750Y0030207D01*
X0127750Y0029208D02*
X0126750Y0029208D01*
X0126750Y0028210D02*
X0127750Y0028210D01*
X0127750Y0027211D02*
X0126750Y0027211D01*
X0124096Y0027211D02*
X0116450Y0027211D01*
X0114250Y0025214D02*
X0078479Y0025214D01*
X0079146Y0024216D02*
X0114250Y0024216D01*
X0114250Y0023217D02*
X0079560Y0023217D01*
X0079593Y0022219D02*
X0114250Y0022219D01*
X0114250Y0021220D02*
X0079534Y0021220D01*
X0079121Y0020222D02*
X0114250Y0020222D01*
X0114250Y0019223D02*
X0078417Y0019223D01*
X0077083Y0018225D02*
X0114250Y0018225D01*
X0114250Y0017226D02*
X0022250Y0017226D01*
X0022250Y0016228D02*
X0114250Y0016228D01*
X0114250Y0015229D02*
X0022250Y0015229D01*
X0022250Y0014231D02*
X0114250Y0014231D01*
X0114250Y0013232D02*
X0022250Y0013232D01*
X0022250Y0012234D02*
X0114250Y0012234D01*
X0114250Y0011235D02*
X0022250Y0011235D01*
X0022250Y0010237D02*
X0114250Y0010237D01*
X0114250Y0009238D02*
X0022250Y0009238D01*
X0022250Y0008240D02*
X0114250Y0008240D01*
X0114250Y0007241D02*
X0022250Y0007241D01*
X0022250Y0006243D02*
X0114250Y0006243D01*
X0114250Y0005244D02*
X0022250Y0005244D01*
X0022250Y0004246D02*
X0114250Y0004246D01*
X0106096Y0027211D02*
X0030404Y0027211D01*
X0031402Y0028210D02*
X0105098Y0028210D01*
X0104099Y0029208D02*
X0032401Y0029208D01*
X0033399Y0030207D02*
X0103101Y0030207D01*
X0102750Y0031205D02*
X0033750Y0031205D01*
X0033750Y0032204D02*
X0102750Y0032204D01*
X0102750Y0033202D02*
X0033750Y0033202D01*
X0033750Y0034201D02*
X0102750Y0034201D01*
X0102750Y0035199D02*
X0033750Y0035199D01*
X0033494Y0036198D02*
X0103006Y0036198D01*
X0104004Y0037196D02*
X0032496Y0037196D01*
X0031497Y0038195D02*
X0105003Y0038195D01*
X0106001Y0039193D02*
X0030499Y0039193D01*
X0024001Y0039193D02*
X0022250Y0039193D01*
X0022250Y0038195D02*
X0023003Y0038195D01*
X0020050Y0038195D02*
X0013497Y0038195D01*
X0012499Y0039193D02*
X0020050Y0039193D01*
X0020050Y0040192D02*
X0003750Y0040192D01*
X0003750Y0041190D02*
X0020050Y0041190D01*
X0020050Y0042189D02*
X0003750Y0042189D01*
X0003750Y0043187D02*
X0020050Y0043187D01*
X0020050Y0044186D02*
X0003750Y0044186D01*
X0003750Y0045184D02*
X0020050Y0045184D01*
X0020050Y0046183D02*
X0012375Y0046183D01*
X0011942Y0045750D02*
X0015750Y0049558D01*
X0015750Y0051750D01*
X0009750Y0051750D01*
X0009750Y0045750D01*
X0011942Y0045750D01*
X0013374Y0047182D02*
X0020050Y0047182D01*
X0020050Y0048180D02*
X0014372Y0048180D01*
X0015371Y0049179D02*
X0020050Y0049179D01*
X0020050Y0050177D02*
X0015750Y0050177D01*
X0015750Y0051176D02*
X0020050Y0051176D01*
X0020050Y0052174D02*
X0009750Y0052174D01*
X0009750Y0052750D02*
X0015750Y0052750D01*
X0015750Y0054942D01*
X0011942Y0058750D01*
X0009750Y0058750D01*
X0009750Y0052750D01*
X0009750Y0053173D02*
X0008750Y0053173D01*
X0008750Y0054171D02*
X0009750Y0054171D01*
X0009750Y0055170D02*
X0008750Y0055170D01*
X0008750Y0056168D02*
X0009750Y0056168D01*
X0009750Y0057167D02*
X0008750Y0057167D01*
X0008750Y0058165D02*
X0009750Y0058165D01*
X0012527Y0058165D02*
X0020050Y0058165D01*
X0020050Y0057167D02*
X0013526Y0057167D01*
X0014524Y0056168D02*
X0020050Y0056168D01*
X0020050Y0055170D02*
X0015523Y0055170D01*
X0015750Y0054171D02*
X0020050Y0054171D01*
X0020050Y0053173D02*
X0015750Y0053173D01*
X0009750Y0051176D02*
X0008750Y0051176D01*
X0008750Y0050177D02*
X0009750Y0050177D01*
X0009750Y0049179D02*
X0008750Y0049179D01*
X0008750Y0048180D02*
X0009750Y0048180D01*
X0009750Y0047182D02*
X0008750Y0047182D01*
X0008750Y0046183D02*
X0009750Y0046183D01*
X0006125Y0046183D02*
X0003750Y0046183D01*
X0003750Y0047182D02*
X0005126Y0047182D01*
X0004128Y0048180D02*
X0003750Y0048180D01*
X0003750Y0056168D02*
X0003976Y0056168D01*
X0003750Y0057167D02*
X0004974Y0057167D01*
X0005973Y0058165D02*
X0003750Y0058165D01*
X0003750Y0059164D02*
X0020050Y0059164D01*
X0020050Y0060162D02*
X0003750Y0060162D01*
X0003750Y0061161D02*
X0020050Y0061161D01*
X0020050Y0062159D02*
X0003750Y0062159D01*
X0003750Y0063158D02*
X0020050Y0063158D01*
X0020050Y0064156D02*
X0003750Y0064156D01*
X0003750Y0065155D02*
X0006153Y0065155D01*
X0005154Y0066153D02*
X0003750Y0066153D01*
X0003750Y0067152D02*
X0004156Y0067152D01*
X0008750Y0067152D02*
X0009750Y0067152D01*
X0009750Y0068150D02*
X0008750Y0068150D01*
X0008750Y0069149D02*
X0009750Y0069149D01*
X0009750Y0070147D02*
X0008750Y0070147D01*
X0009750Y0070750D02*
X0009750Y0064750D01*
X0011942Y0064750D01*
X0015750Y0068558D01*
X0015750Y0070750D01*
X0009750Y0070750D01*
X0009750Y0071146D02*
X0020050Y0071146D01*
X0020050Y0072144D02*
X0015750Y0072144D01*
X0015750Y0071750D02*
X0015750Y0073942D01*
X0011942Y0077750D01*
X0009750Y0077750D01*
X0009750Y0071750D01*
X0015750Y0071750D01*
X0015750Y0073143D02*
X0020050Y0073143D01*
X0020050Y0074141D02*
X0015551Y0074141D01*
X0014553Y0075140D02*
X0020050Y0075140D01*
X0020050Y0076138D02*
X0013554Y0076138D01*
X0012555Y0077137D02*
X0020050Y0077137D01*
X0020050Y0078135D02*
X0003750Y0078135D01*
X0003750Y0077137D02*
X0005945Y0077137D01*
X0004946Y0076138D02*
X0003750Y0076138D01*
X0003750Y0075140D02*
X0003947Y0075140D01*
X0003750Y0079134D02*
X0020050Y0079134D01*
X0020050Y0080132D02*
X0003750Y0080132D01*
X0003750Y0081131D02*
X0020050Y0081131D01*
X0020050Y0082129D02*
X0003750Y0082129D01*
X0003750Y0083128D02*
X0020050Y0083128D01*
X0020050Y0084126D02*
X0012319Y0084126D01*
X0011942Y0083750D02*
X0015750Y0087558D01*
X0015750Y0089750D01*
X0009750Y0089750D01*
X0009750Y0083750D01*
X0011942Y0083750D01*
X0013317Y0085125D02*
X0020050Y0085125D01*
X0020050Y0086123D02*
X0014316Y0086123D01*
X0015314Y0087122D02*
X0020050Y0087122D01*
X0020050Y0088120D02*
X0015750Y0088120D01*
X0015750Y0089119D02*
X0020050Y0089119D01*
X0020050Y0090118D02*
X0009750Y0090118D01*
X0009750Y0090750D02*
X0015750Y0090750D01*
X0015750Y0092942D01*
X0011942Y0096750D01*
X0009750Y0096750D01*
X0009750Y0090750D01*
X0009750Y0091116D02*
X0008750Y0091116D01*
X0008750Y0092115D02*
X0009750Y0092115D01*
X0009750Y0093113D02*
X0008750Y0093113D01*
X0008750Y0094112D02*
X0009750Y0094112D01*
X0009750Y0095110D02*
X0008750Y0095110D01*
X0008750Y0096109D02*
X0009750Y0096109D01*
X0012584Y0096109D02*
X0023633Y0096109D01*
X0022635Y0095110D02*
X0013582Y0095110D01*
X0014581Y0094112D02*
X0021000Y0094112D01*
X0020050Y0093113D02*
X0015579Y0093113D01*
X0015750Y0092115D02*
X0020050Y0092115D01*
X0020050Y0091116D02*
X0015750Y0091116D01*
X0009750Y0089119D02*
X0008750Y0089119D01*
X0008750Y0088120D02*
X0009750Y0088120D01*
X0009750Y0087122D02*
X0008750Y0087122D01*
X0008750Y0086123D02*
X0009750Y0086123D01*
X0009750Y0085125D02*
X0008750Y0085125D01*
X0008750Y0084126D02*
X0009750Y0084126D01*
X0006181Y0084126D02*
X0003750Y0084126D01*
X0003750Y0085125D02*
X0005183Y0085125D01*
X0004184Y0086123D02*
X0003750Y0086123D01*
X0003750Y0094112D02*
X0003919Y0094112D01*
X0003750Y0095110D02*
X0004918Y0095110D01*
X0005916Y0096109D02*
X0003750Y0096109D01*
X0003750Y0097107D02*
X0132250Y0097107D01*
X0132250Y0096109D02*
X0130584Y0096109D01*
X0131582Y0095110D02*
X0132250Y0095110D01*
X0132250Y0098106D02*
X0003750Y0098106D01*
X0019104Y0099104D02*
X0117435Y0099104D01*
X0116482Y0100103D02*
X0020103Y0100103D01*
X0021101Y0101101D02*
X0115528Y0101101D01*
X0114575Y0102100D02*
X0022100Y0102100D01*
X0023098Y0103098D02*
X0113622Y0103098D01*
X0112669Y0104097D02*
X0024097Y0104097D01*
X0025095Y0105095D02*
X0053328Y0105095D01*
X0054007Y0104416D02*
X0058840Y0104416D01*
X0062257Y0107834D01*
X0062257Y0112666D01*
X0058840Y0116084D01*
X0054007Y0116084D01*
X0050589Y0112666D01*
X0050589Y0107834D01*
X0054007Y0104416D01*
X0052329Y0106094D02*
X0026094Y0106094D01*
X0027092Y0107092D02*
X0051331Y0107092D01*
X0050589Y0108091D02*
X0028091Y0108091D01*
X0029089Y0109089D02*
X0050589Y0109089D01*
X0050589Y0110088D02*
X0030088Y0110088D01*
X0031086Y0111086D02*
X0050589Y0111086D01*
X0050589Y0112085D02*
X0032085Y0112085D01*
X0033083Y0113083D02*
X0051006Y0113083D01*
X0052005Y0114082D02*
X0034082Y0114082D01*
X0035080Y0115080D02*
X0053003Y0115080D01*
X0054002Y0116079D02*
X0036079Y0116079D01*
X0037077Y0117077D02*
X0100278Y0117077D01*
X0099325Y0118076D02*
X0038076Y0118076D01*
X0039074Y0119074D02*
X0098372Y0119074D01*
X0097419Y0120073D02*
X0040073Y0120073D01*
X0058845Y0116079D02*
X0101232Y0116079D01*
X0102185Y0115080D02*
X0081214Y0115080D01*
X0080410Y0115884D02*
X0078577Y0115884D01*
X0078577Y0110750D01*
X0083711Y0110750D01*
X0083711Y0112584D01*
X0080410Y0115884D01*
X0078577Y0115080D02*
X0077577Y0115080D01*
X0077577Y0115884D02*
X0075743Y0115884D01*
X0072443Y0112584D01*
X0072443Y0110750D01*
X0077577Y0110750D01*
X0077577Y0115884D01*
X0077577Y0114082D02*
X0078577Y0114082D01*
X0078577Y0113083D02*
X0077577Y0113083D01*
X0077577Y0112085D02*
X0078577Y0112085D01*
X0078577Y0111086D02*
X0077577Y0111086D01*
X0077577Y0110750D02*
X0078577Y0110750D01*
X0078577Y0109750D01*
X0083711Y0109750D01*
X0083711Y0107916D01*
X0080410Y0104616D01*
X0078577Y0104616D01*
X0078577Y0109750D01*
X0077577Y0109750D01*
X0077577Y0104616D01*
X0075743Y0104616D01*
X0072443Y0107916D01*
X0072443Y0109750D01*
X0077577Y0109750D01*
X0077577Y0110750D01*
X0077577Y0110088D02*
X0062257Y0110088D01*
X0062257Y0111086D02*
X0072443Y0111086D01*
X0072443Y0112085D02*
X0062257Y0112085D01*
X0061840Y0113083D02*
X0072943Y0113083D01*
X0073941Y0114082D02*
X0060842Y0114082D01*
X0059843Y0115080D02*
X0074940Y0115080D01*
X0078577Y0110088D02*
X0106950Y0110088D01*
X0105997Y0111086D02*
X0083711Y0111086D01*
X0083711Y0112085D02*
X0105044Y0112085D01*
X0104091Y0113083D02*
X0083211Y0113083D01*
X0082212Y0114082D02*
X0103138Y0114082D01*
X0107903Y0109089D02*
X0083711Y0109089D01*
X0083711Y0108091D02*
X0108857Y0108091D01*
X0109810Y0107092D02*
X0082886Y0107092D01*
X0081888Y0106094D02*
X0110763Y0106094D01*
X0111716Y0105095D02*
X0080889Y0105095D01*
X0078577Y0105095D02*
X0077577Y0105095D01*
X0077577Y0106094D02*
X0078577Y0106094D01*
X0078577Y0107092D02*
X0077577Y0107092D01*
X0077577Y0108091D02*
X0078577Y0108091D01*
X0078577Y0109089D02*
X0077577Y0109089D01*
X0074266Y0106094D02*
X0060517Y0106094D01*
X0061516Y0107092D02*
X0073267Y0107092D01*
X0072443Y0108091D02*
X0062257Y0108091D01*
X0062257Y0109089D02*
X0072443Y0109089D01*
X0075264Y0105095D02*
X0059519Y0105095D01*
X0033750Y0092115D02*
X0102750Y0092115D01*
X0102750Y0091116D02*
X0033750Y0091116D01*
X0033750Y0090118D02*
X0102750Y0090118D01*
X0102750Y0089119D02*
X0033750Y0089119D01*
X0033750Y0088120D02*
X0102750Y0088120D01*
X0103186Y0087122D02*
X0033314Y0087122D01*
X0032316Y0086123D02*
X0104184Y0086123D01*
X0105183Y0085125D02*
X0031317Y0085125D01*
X0030319Y0084126D02*
X0106181Y0084126D01*
X0112319Y0084126D02*
X0114250Y0084126D01*
X0114250Y0083128D02*
X0022250Y0083128D01*
X0022250Y0084126D02*
X0024181Y0084126D01*
X0023183Y0085125D02*
X0022250Y0085125D01*
X0022250Y0082129D02*
X0114250Y0082129D01*
X0114250Y0081131D02*
X0022250Y0081131D01*
X0022250Y0080132D02*
X0114250Y0080132D01*
X0114250Y0079134D02*
X0022250Y0079134D01*
X0022250Y0078135D02*
X0114250Y0078135D01*
X0114250Y0077137D02*
X0112555Y0077137D01*
X0113554Y0076138D02*
X0114250Y0076138D01*
X0105944Y0077137D02*
X0030555Y0077137D01*
X0031554Y0076138D02*
X0104946Y0076138D01*
X0103947Y0075140D02*
X0032553Y0075140D01*
X0033551Y0074141D02*
X0102949Y0074141D01*
X0102750Y0073143D02*
X0033750Y0073143D01*
X0033750Y0072144D02*
X0102750Y0072144D01*
X0102750Y0071146D02*
X0033750Y0071146D01*
X0033750Y0070147D02*
X0102750Y0070147D01*
X0102750Y0069149D02*
X0033750Y0069149D01*
X0033343Y0068150D02*
X0103157Y0068150D01*
X0104156Y0067152D02*
X0032344Y0067152D01*
X0031346Y0066153D02*
X0105154Y0066153D01*
X0106153Y0065155D02*
X0030347Y0065155D01*
X0024153Y0065155D02*
X0022250Y0065155D01*
X0022250Y0066153D02*
X0023154Y0066153D01*
X0020050Y0066153D02*
X0013346Y0066153D01*
X0014344Y0067152D02*
X0020050Y0067152D01*
X0020050Y0068150D02*
X0015343Y0068150D01*
X0015750Y0069149D02*
X0020050Y0069149D01*
X0020050Y0070147D02*
X0015750Y0070147D01*
X0012347Y0065155D02*
X0020050Y0065155D01*
X0022250Y0058165D02*
X0023973Y0058165D01*
X0022974Y0057167D02*
X0022250Y0057167D01*
X0030527Y0058165D02*
X0105973Y0058165D01*
X0104974Y0057167D02*
X0031526Y0057167D01*
X0032524Y0056168D02*
X0103976Y0056168D01*
X0102977Y0055170D02*
X0033523Y0055170D01*
X0033750Y0054171D02*
X0102750Y0054171D01*
X0102750Y0053173D02*
X0033750Y0053173D01*
X0033750Y0052174D02*
X0102750Y0052174D01*
X0102750Y0051176D02*
X0033750Y0051176D01*
X0033750Y0050177D02*
X0102750Y0050177D01*
X0103129Y0049179D02*
X0033371Y0049179D01*
X0032372Y0048180D02*
X0104128Y0048180D01*
X0105126Y0047182D02*
X0031374Y0047182D01*
X0030375Y0046183D02*
X0106125Y0046183D01*
X0130375Y0046183D02*
X0132250Y0046183D01*
X0132250Y0047182D02*
X0131374Y0047182D01*
X0130499Y0039193D02*
X0132250Y0039193D01*
X0132250Y0038195D02*
X0131497Y0038195D01*
X0131402Y0028210D02*
X0132250Y0028210D01*
X0132250Y0027211D02*
X0130404Y0027211D01*
X0131526Y0057167D02*
X0132250Y0057167D01*
X0132250Y0058165D02*
X0130527Y0058165D01*
X0130347Y0065155D02*
X0132250Y0065155D01*
X0132250Y0066153D02*
X0131346Y0066153D01*
X0114250Y0085125D02*
X0113317Y0085125D01*
X0104635Y0095110D02*
X0031865Y0095110D01*
X0030867Y0096109D02*
X0105633Y0096109D01*
X0023945Y0077137D02*
X0022250Y0077137D01*
X0022250Y0076138D02*
X0022946Y0076138D01*
X0009750Y0076138D02*
X0008750Y0076138D01*
X0008750Y0075140D02*
X0009750Y0075140D01*
X0009750Y0074141D02*
X0008750Y0074141D01*
X0008750Y0073143D02*
X0009750Y0073143D01*
X0009750Y0072144D02*
X0008750Y0072144D01*
X0008750Y0077137D02*
X0009750Y0077137D01*
X0009750Y0066153D02*
X0008750Y0066153D01*
X0008750Y0065155D02*
X0009750Y0065155D01*
X0022250Y0047182D02*
X0023126Y0047182D01*
X0022250Y0046183D02*
X0024125Y0046183D01*
X0020050Y0037196D02*
X0014496Y0037196D01*
X0015494Y0036198D02*
X0020050Y0036198D01*
X0020050Y0035199D02*
X0015750Y0035199D01*
X0015750Y0035942D02*
X0011942Y0039750D01*
X0009750Y0039750D01*
X0009750Y0033750D01*
X0015750Y0033750D01*
X0015750Y0035942D01*
X0015750Y0034201D02*
X0020050Y0034201D01*
X0020050Y0033202D02*
X0009750Y0033202D01*
X0009750Y0032750D02*
X0015750Y0032750D01*
X0015750Y0030558D01*
X0011942Y0026750D01*
X0009750Y0026750D01*
X0009750Y0032750D01*
X0009750Y0032204D02*
X0008750Y0032204D01*
X0008750Y0031205D02*
X0009750Y0031205D01*
X0009750Y0030207D02*
X0008750Y0030207D01*
X0008750Y0029208D02*
X0009750Y0029208D01*
X0009750Y0028210D02*
X0008750Y0028210D01*
X0008750Y0027211D02*
X0009750Y0027211D01*
X0012404Y0027211D02*
X0020050Y0027211D01*
X0020050Y0028210D02*
X0013402Y0028210D01*
X0014401Y0029208D02*
X0020050Y0029208D01*
X0020050Y0030207D02*
X0015399Y0030207D01*
X0015750Y0031205D02*
X0020050Y0031205D01*
X0020050Y0032204D02*
X0015750Y0032204D01*
X0009750Y0034201D02*
X0008750Y0034201D01*
X0008750Y0035199D02*
X0009750Y0035199D01*
X0009750Y0036198D02*
X0008750Y0036198D01*
X0008750Y0037196D02*
X0009750Y0037196D01*
X0009750Y0038195D02*
X0008750Y0038195D01*
X0008750Y0039193D02*
X0009750Y0039193D01*
X0006001Y0039193D02*
X0003750Y0039193D01*
X0003750Y0038195D02*
X0005003Y0038195D01*
X0004004Y0037196D02*
X0003750Y0037196D01*
X0003750Y0029208D02*
X0004099Y0029208D01*
X0003750Y0028210D02*
X0005098Y0028210D01*
X0006096Y0027211D02*
X0003750Y0027211D01*
D13*
X0032250Y0016250D03*
X0057250Y0061250D03*
X0067250Y0087250D03*
X0096250Y0087250D03*
X0038250Y0087250D03*
X0103250Y0016250D03*
M02*
